<svg xmlns="http://www.w3.org/2000/svg" fill="none" viewBox="0 0 121 100" height="100" width="121">
<path fill="black" d="M106.542 38.2275H109.987V52.316L108.726 52.2852L116.509 44.5027H120.354L108.88 55.7305L109.987 53.1465V60.2215H106.542V38.2275ZM111.71 51.8238L114.017 49.6706L121 60.2215H116.97L111.71 51.8238Z"></path>
<path fill="black" d="M96.137 60.7139C94.4964 60.7139 93.0712 60.3652 91.8612 59.668C90.6718 58.9708 89.7592 57.9967 89.1235 56.7457C88.4878 55.4743 88.1699 54.0183 88.1699 52.3777C88.1699 50.7371 88.4878 49.2914 89.1235 48.0404C89.7592 46.769 90.6821 45.7846 91.892 45.0874C93.1019 44.3696 94.5272 44.0107 96.1677 44.0107C97.7878 44.0107 99.1926 44.3696 100.382 45.0874C101.571 45.7846 102.484 46.7587 103.12 48.0096C103.776 49.2606 104.104 50.7063 104.104 52.3469C104.104 53.9875 103.776 55.4435 103.12 56.715C102.484 57.9659 101.561 58.9502 100.351 59.668C99.1618 60.3652 97.757 60.7139 96.137 60.7139ZM96.1677 57.9454C97.1111 57.9454 97.9108 57.7096 98.5671 57.2379C99.2438 56.7662 99.7462 56.11 100.074 55.2692C100.402 54.4284 100.567 53.4543 100.567 52.3469C100.567 50.6858 100.187 49.3426 99.4284 48.3173C98.6696 47.2919 97.5725 46.7792 96.137 46.7792C95.1731 46.7792 94.3529 47.015 93.6761 47.4867C93.0199 47.9584 92.5277 48.6146 92.1996 49.4554C91.8715 50.2962 91.7074 51.2703 91.7074 52.3777C91.7074 54.0388 92.0868 55.382 92.8456 56.4074C93.6043 57.4327 94.7117 57.9454 96.1677 57.9454Z"></path>
<path fill="black" d="M78.5335 60.7139C76.8929 60.7139 75.4676 60.3652 74.2577 59.668C73.0683 58.9708 72.1557 57.9967 71.52 56.7457C70.8843 55.4743 70.5664 54.0183 70.5664 52.3777C70.5664 50.7371 70.8843 49.2914 71.52 48.0404C72.1557 46.769 73.0785 45.7846 74.2885 45.0874C75.4984 44.3696 76.9236 44.0107 78.5642 44.0107C80.1843 44.0107 81.589 44.3696 82.7785 45.0874C83.9679 45.7846 84.8804 46.7587 85.5162 48.0096C86.1724 49.2606 86.5005 50.7063 86.5005 52.3469C86.5005 53.9875 86.1724 55.4435 85.5162 56.715C84.8804 57.9659 83.9576 58.9502 82.7477 59.668C81.5583 60.3652 80.1535 60.7139 78.5335 60.7139ZM78.5642 57.9454C79.5076 57.9454 80.3073 57.7096 80.9636 57.2379C81.6403 56.7662 82.1427 56.11 82.4708 55.2692C82.799 54.4284 82.963 53.4543 82.963 52.3469C82.963 50.6858 82.5836 49.3426 81.8249 48.3173C81.0661 47.2919 79.969 46.7792 78.5335 46.7792C77.5696 46.7792 76.7493 47.015 76.0726 47.4867C75.4164 47.9584 74.9242 48.6146 74.5961 49.4554C74.268 50.2962 74.1039 51.2703 74.1039 52.3777C74.1039 54.0388 74.4833 55.382 75.2421 56.4074C76.0008 57.4327 77.1082 57.9454 78.5642 57.9454Z"></path>
<path fill="black" d="M61.8875 60.6829C60.7596 60.6829 59.7957 60.4676 58.9959 60.037C58.1962 59.5858 57.5604 59.0321 57.0888 58.3759H56.2275V46.2869H57.0888C57.5604 45.6717 58.1962 45.1487 58.9959 44.7181C59.8162 44.2669 60.7801 44.0413 61.8875 44.0413C63.2204 44.0413 64.4098 44.3797 65.4557 45.0564C66.5221 45.7332 67.3526 46.697 67.9473 47.948C68.5626 49.1989 68.8702 50.6754 68.8702 52.3775C68.8702 54.0591 68.5626 55.5254 67.9473 56.7763C67.3526 58.0273 66.5221 58.9911 65.4557 59.6678C64.4098 60.3446 63.2204 60.6829 61.8875 60.6829ZM53.582 38.2275H57.0272V60.2215H53.582V38.2275ZM61.18 57.9145C62.0618 57.9145 62.8103 57.6786 63.4255 57.207C64.0612 56.7148 64.5329 56.0483 64.8405 55.2075C65.1481 54.3667 65.3019 53.4234 65.3019 52.3775C65.3019 51.3111 65.1481 50.3678 64.8405 49.5475C64.5329 48.7067 64.0612 48.0402 63.4255 47.5481C62.8103 47.0559 62.0618 46.8098 61.18 46.8098C60.3392 46.8098 59.6009 47.0354 58.9652 47.4865C58.35 47.9172 57.8783 48.5529 57.5502 49.3937C57.2426 50.2345 57.0888 51.2291 57.0888 52.3775C57.0888 53.5259 57.2426 54.5205 57.5502 55.3613C57.8783 56.1816 58.35 56.8173 58.9652 57.2685C59.6009 57.6991 60.3392 57.9145 61.18 57.9145Z"></path>
<path fill="black" d="M45.4081 42.7801C45.4081 41.5907 45.5619 40.6474 45.8696 39.9501C46.1977 39.2529 46.6591 38.7607 47.2538 38.4736C47.869 38.166 48.6585 38.0122 49.6224 38.0122C50.2376 38.0122 50.9451 38.084 51.7449 38.2275V40.873C51.1297 40.8114 50.699 40.7807 50.4529 40.7807C50.0428 40.7807 49.7249 40.832 49.4993 40.9345C49.2738 41.037 49.1097 41.2318 49.0072 41.5189C48.9046 41.7855 48.8534 42.2059 48.8534 42.7801V60.2215H45.4081V42.7801ZM43.2549 44.5027H51.7449V47.2712H43.2549V44.5027Z"></path>
<path fill="black" d="M37.541 38.2275H40.9862V60.2215H37.541V38.2275Z"></path>
<path fill="black" d="M27.5242 60.7139C25.8836 60.7139 24.4686 60.355 23.2792 59.6372C22.1103 58.9195 21.208 57.9351 20.5722 56.6842C19.957 55.4128 19.6494 53.967 19.6494 52.3469C19.6494 50.7269 19.9673 49.2914 20.603 48.0404C21.2387 46.769 22.141 45.7846 23.31 45.0874C24.4994 44.3696 25.9041 44.0107 27.5242 44.0107C29.1237 44.0107 30.4875 44.3491 31.6154 45.0258C32.7638 45.6821 33.6251 46.6254 34.1993 47.8558C34.794 49.0863 35.0914 50.5525 35.0914 52.2546C35.0914 52.7468 35.0811 53.0852 35.0606 53.2698H21.4951V50.7781H31.5539C31.5539 49.9783 31.3795 49.2708 31.0309 48.6556C30.7028 48.0404 30.2209 47.5687 29.5852 47.2406C28.9699 46.892 28.2522 46.7177 27.4319 46.7177C26.6116 46.7177 25.8734 46.9023 25.2171 47.2714C24.5814 47.6405 24.079 48.1635 23.7098 48.8402C23.3612 49.4964 23.1869 50.2654 23.1869 51.1473C23.1869 51.8035 23.1869 52.47 23.1869 53.1467C23.1869 54.0285 23.351 54.8386 23.6791 55.5768C24.0277 56.2946 24.5301 56.8688 25.1864 57.2994C25.8426 57.7301 26.6424 57.9454 27.5857 57.9454C28.365 57.9454 29.0212 57.8121 29.5544 57.5455C30.1081 57.2789 30.5182 56.961 30.7848 56.5919C31.0719 56.2023 31.277 55.8126 31.4001 55.423H34.9068C34.4761 57.0226 33.6353 58.3043 32.3844 59.2681C31.1335 60.232 29.5134 60.7139 27.5242 60.7139Z"></path>
<path fill="black" d="M9.8127 60.6829C7.94655 60.6829 6.28546 60.3651 4.82945 59.7293C3.37344 59.0936 2.21478 58.1913 1.35348 57.0224C0.51268 55.833 0.0615216 54.4282 0 52.8082H3.96815C4.02967 53.772 4.27576 54.6025 4.70641 55.2998C5.15757 55.9765 5.79329 56.4995 6.61358 56.8686C7.45437 57.2377 8.48999 57.4223 9.72042 57.4223C10.7458 57.4223 11.5763 57.289 12.212 57.0224C12.8478 56.7558 13.2989 56.3867 13.5655 55.915C13.8526 55.4433 13.9962 54.8896 13.9962 54.2539C13.9962 53.4541 13.8014 52.8389 13.4117 52.4083C13.0221 51.9571 12.4889 51.5982 11.8122 51.3316C11.1354 51.065 10.1101 50.7574 8.73608 50.4088C8.55151 50.3473 8.32593 50.2858 8.05934 50.2242C6.56231 49.8141 5.31137 49.3937 4.30652 48.9631C3.32217 48.5119 2.49163 47.8864 1.81489 47.0866C1.15866 46.2664 0.830542 45.2102 0.830542 43.9183C0.830542 42.6058 1.1484 41.4882 1.78413 40.5653C2.44036 39.6425 3.35293 38.9453 4.52184 38.4736C5.71126 38.0019 7.0955 37.7661 8.67455 37.7661C10.3767 37.7661 11.8634 38.0532 13.1349 38.6274C14.4268 39.1811 15.4419 39.9809 16.1802 41.0268C16.939 42.0726 17.3594 43.3338 17.4414 44.8103H13.4732C13.3092 43.5594 12.8375 42.6161 12.0582 41.9803C11.279 41.3446 10.1613 41.0268 8.70531 41.0268C7.45437 41.0268 6.49054 41.2523 5.8138 41.7035C5.15757 42.1547 4.82945 42.8211 4.82945 43.703C4.82945 44.4002 5.01402 44.9539 5.38315 45.364C5.77278 45.7742 6.27521 46.1023 6.89043 46.3484C7.50564 46.574 8.36695 46.8406 9.47434 47.1482C9.55637 47.1687 9.63839 47.1892 9.72042 47.2097C9.78194 47.2302 9.85372 47.2507 9.93575 47.2712C11.7404 47.7224 13.1759 48.1735 14.2423 48.6247C15.3291 49.0758 16.2212 49.7321 16.9185 50.5934C17.6362 51.4342 17.9951 52.5621 17.9951 53.9771C17.9951 55.2895 17.6875 56.4482 17.0723 57.453C16.457 58.4579 15.5342 59.2474 14.3038 59.8216C13.0939 60.3958 11.5968 60.6829 9.8127 60.6829Z"></path>
</svg>
