<svg xmlns="http://www.w3.org/2000/svg" fill="none" viewBox="0 0 124 100" height="100" width="124">
<g clip-path="url(#clip0_8847_33393)">
<path fill="black" d="M33.1869 36C34.7638 38.1167 35.5641 40.2334 36.1525 42.3267C36.7174 44.4434 36.9527 46.5601 36.9763 48.6533C36.9763 50.77 36.7409 52.8868 36.176 54.98C35.5876 57.0967 34.7873 59.2134 33.1869 61.3066C31.5864 59.1899 30.8097 57.0732 30.1977 54.98C29.6328 52.8632 29.3975 50.7465 29.3975 48.6533C29.3975 46.5366 29.6564 44.4199 30.2212 42.3267C30.8097 40.2334 31.5864 38.1167 33.1869 36Z"></path>
<path fill="black" d="M111.21 36C112.787 38.1167 113.588 40.2334 114.176 42.3267C114.741 44.4434 114.976 46.5601 115 48.6533C115 50.77 114.764 52.8868 114.199 54.98C113.611 57.0967 112.811 59.2134 111.21 61.3066C109.61 59.1899 108.833 57.0732 108.221 54.98C107.656 52.8632 107.421 50.7465 107.421 48.6533C107.421 46.5366 107.68 44.4199 108.245 42.3267C108.833 40.2334 109.633 38.1167 111.21 36Z"></path>
<path fill="black" d="M64.3495 59.0017C67.9506 56.7909 70.0925 53.122 70.0925 48.6768C70.0925 41.0801 64.4437 36 55.4998 36C46.9324 36 40.7188 41.2683 40.7188 48.6768C40.7188 61.73 58.6772 67.6098 72.1402 58.8841C67.8094 59.7544 64.3495 59.0017 64.3495 59.0017ZM55.4291 41.3624C60.6543 41.3624 63.7376 44.3963 63.7376 48.6768C63.7376 52.9573 60.5601 55.9443 55.4762 55.9443C50.6041 55.9443 47.0736 53.216 47.0736 48.6768C47.0736 44.3023 50.5335 41.3624 55.4291 41.3624Z"></path>
<path fill="black" d="M100.148 56.5088C101.96 54.4156 102.972 51.7344 102.972 48.6534C102.972 41.0567 97.3237 35.9766 88.3797 35.9766C79.7889 35.9766 73.5752 41.2449 73.5752 48.6534C73.5752 56.1795 79.5064 61.3302 88.1914 61.3302C94.5934 61.3302 99.5361 58.5079 106.974 61.7065C106.597 59.7074 103.584 57.2144 100.148 56.5088ZM79.9536 48.6769C79.9536 44.3023 83.4135 41.3625 88.3327 41.3625C93.5578 41.3625 96.6411 44.3964 96.6411 48.6769C96.6411 52.9574 93.4636 55.9443 88.3797 55.9443C83.4841 55.9443 79.9536 53.2161 79.9536 48.6769Z"></path>
<path fill="black" d="M11.9801 55.168L28.1027 38.9163C28.1027 38.9163 22.4539 35.7647 14.781 36.0234C7.88477 36.2351 2.1183 39.1279 0.541343 40.3274C5.29574 39.1279 12.2155 39.5748 16.5933 41.5739C16.4286 41.715 0 57.5434 0 57.5434C0 57.5434 6.82562 61.5182 14.1926 61.5182C21.5596 61.5182 24.7135 60.0365 28.0321 57.7786C21.3948 58.7664 15.087 57.0966 11.9801 55.168Z"></path>
</g>
<defs>
<clipPath id="clip0_8847_33393">
<rect transform="translate(0 36)" fill="white" height="27" width="115"></rect>
</clipPath>
</defs>
</svg>
