<svg xmlns="http://www.w3.org/2000/svg" fill="none" viewBox="0 0 62 100" height="100" width="62">
<path fill="black" d="M7.98447 76.3049C7.88302 75.9816 7.58676 75.2547 7.50606 74.7181C7.32796 73.5296 7.94931 72.7468 8.51994 72.5676C9.16031 72.3889 9.41046 72.7105 9.65831 73.4581C9.97879 74.5965 10.0145 76.0882 9.90674 78.2237C9.76667 81.1409 8.30725 84.6638 4.67943 84.5906C1.54788 84.522 0.162235 82.4937 0.0181369 79.399C-0.0498775 77.9401 0.0544497 76.4819 0.65851 74.4195C0.978984 73.3152 1.26488 72.9221 2.25915 72.7105C3.04074 72.5676 2.97042 73.3849 2.79347 74.3486C2.40383 76.4819 2.22284 77.5119 2.36694 79.9322C2.50643 82.4937 3.68284 83.4902 4.96359 83.4902C6.88471 83.5271 7.73777 81.9265 8.09513 79.6117C8.37699 77.7626 8.1643 76.8732 7.98447 76.3049ZM48.9453 78.8313C49.6934 78.8313 49.9078 79.716 49.7292 80.2521C49.5505 80.7847 48.9113 81.3922 47.9158 81.5691C47.7014 81.0342 47.5942 78.8313 48.9453 78.8313ZM35.0392 80.0371C35.0392 79.4347 34.717 78.9362 34.3291 78.9362C34.0052 78.9362 33.261 79.2906 33.261 80.4296C33.261 81.3218 33.5781 81.7449 33.7233 81.9265C34.7522 81.6049 35.0392 80.7489 35.0392 80.0371ZM23.9736 72.7814C23.9235 72.2108 23.4762 71.8223 22.871 71.8223C22.196 71.8223 21.5603 72.5307 21.6277 73.4207C21.6709 74.0074 22.0168 74.4899 22.6963 74.4899C23.4762 74.4904 24.0451 73.6011 23.9736 72.7814ZM29.7589 74.8709C29.6972 73.876 29.4563 73.427 28.9219 73.4639C28.2136 73.5065 27.8862 75.7354 28.0308 78.0785C28.1231 79.6071 28.3507 79.8428 28.5629 79.8278C28.9548 79.8042 29.8949 77.0733 29.7589 74.8709ZM53.357 78.6157C52.916 80.4446 51.5794 83.1352 49.5851 83.1352C49.1234 83.1352 48.3049 82.9559 48.3049 82.4937C48.3049 81.9951 51.4376 81.9265 51.4376 79.5414C51.4376 78.6531 50.6197 77.4064 49.4093 77.4064C47.8086 77.4064 46.2472 79.1512 46.2472 81.5697C46.2472 83.7381 47.5942 84.4499 48.9458 84.4499C51.2947 84.4499 52.7178 82.5277 53.4642 80.9282C53.8216 81.9957 54.0314 84.4499 54.9242 84.4499C55.2787 84.4499 55.5294 84.2718 55.9565 83.3127C57.0211 80.9276 58.054 78.1886 59.4777 78.1886C60.0097 78.1886 59.691 79.1512 60.9711 79.1512C61.5746 79.1512 62 78.6532 62 78.0814C62 77.2623 61.2542 76.6242 60.1169 76.6242C56.7721 76.6242 56.0631 81.6406 55.5288 81.6406C54.6389 81.6406 54.9236 77.6203 54.2821 77.6203C53.7126 77.6197 53.4331 78.2981 53.357 78.6157ZM24.8993 82.8839C25.4325 82.8839 26.3495 82.711 27.0711 81.5553C26.6585 80.6388 26.3639 78.7869 26.323 78.1125C26.1109 74.6639 27.4395 71.42 28.8937 71.3301C29.96 71.2655 30.8131 72.2748 30.9111 73.91C31.1733 78.207 29.7422 80.0008 29.0257 81.5484C29.1467 82.1484 30.1647 83.1698 31.1249 83.1698C31.4794 83.1698 31.9082 82.9917 32.016 82.8476C31.9446 82.6003 31.8719 82.2804 31.8719 81.8164C31.8719 79.3264 33.4732 77.2266 34.8611 77.2266C35.9637 77.2266 36.6041 78.6848 36.6041 79.6474C36.6041 80.7841 35.6427 81.7109 34.2207 82.6003C34.4709 82.8476 34.9308 83.0274 35.3239 83.0274C37.3534 83.0274 38.4151 80.572 39.2013 78.3298C39.3431 77.9021 39.5939 77.2986 40.0907 77.2986C40.9444 77.2986 41.3017 82.9196 42.7208 82.9196C43.3277 82.9196 43.8246 81.6735 43.8246 80.7155C43.8246 80.0031 43.5756 79.9316 43.5756 78.8998C43.5756 77.7626 44.1808 76.8029 45.001 76.8029C45.4984 76.8029 45.6783 77.2986 45.6783 77.9021C45.6783 80.1794 44.0396 84.4136 41.6239 84.4136C39.8066 84.4136 39.9483 81.2827 39.3086 81.2827C38.5938 81.2827 37.5978 84.4488 34.0795 84.4488C33.5077 84.4488 32.9043 84.1646 32.4074 83.594C31.5549 84.1646 30.8413 84.4136 30.0229 84.4136C28.7081 84.4136 28.1375 83.0614 27.6055 83.0614C26.9639 83.0614 26.2544 84.4488 24.1177 84.4488C22.4104 84.4488 22.1257 82.1743 21.5222 82.1743C20.9873 82.1743 20.1694 84.4488 19.2806 84.4488C17.7843 84.4488 17.4673 80.5011 16.1485 80.5011C15.1173 80.5011 11.8578 84.5105 10.9731 84.4188C10.6174 84.3819 10.4676 84.1162 10.505 83.76C10.5552 83.2678 10.9788 81.9501 11.1506 81.327C11.4382 80.2451 11.7022 79.0595 11.8498 78.6814C11.9962 78.2998 12.391 78.0278 12.708 78.0572C12.8677 78.0721 12.9155 78.3701 12.9651 78.6163C13.1449 79.4958 13.3956 80.3927 13.6787 80.3927C14.1784 80.3927 15.8286 77.226 16.7889 77.226C17.9647 77.226 18.1054 82.2078 19.7054 82.2078C20.2403 82.2078 20.6328 81.5685 20.9873 80.7835C21.0236 79.4653 21.3793 77.5839 22.4462 77.5839C23.1938 77.5839 23.55 79.2543 23.0145 80.7149C23.0133 82.4568 24.1506 82.8839 24.8993 82.8839Z"></path>
<path fill="black" d="M49.6787 27.0977C49.4147 27.0977 49.0366 27.0977 48.8286 26.6832C48.6579 26.3432 48.7156 25.795 48.3945 25.55C48.7156 25.644 49.0551 25.644 49.3191 25.644C50.1698 25.644 50.9825 25.0589 51.6062 25.0589C52.0172 25.0589 52.1497 25.3235 52.1497 25.5869C52.1503 26.4187 50.473 27.0977 49.6787 27.0977ZM50.0937 29.2309C52.0552 29.2309 53.8512 27.6642 53.8512 26.2867C53.8512 25.644 53.5481 25.116 52.774 25.0215C52.906 25.1915 52.9624 25.3235 52.9624 25.6255C52.9624 26.6642 51.3802 27.8158 49.6603 27.8158C49.0366 27.8158 48.8476 28.2493 48.8476 28.4758C48.8476 29.0049 49.3583 29.2309 50.0937 29.2309ZM49.9433 30.024C50.1894 31.8166 52.906 34.2334 53.642 34.1763C54.1343 34.1348 54.3227 31.8356 54.3227 30.024C54.3227 28.9859 54.3798 28.1738 53.8316 27.9847C52.9619 29.741 50.6805 30.0995 49.9433 30.024Z"></path>
<path fill="black" d="M7.45227 41.8968C8.09322 41.8968 7.96122 37.9698 8.99931 37.9698C9.24543 37.9698 9.32094 38.2153 9.32094 38.5174C9.32094 39.4044 8.88633 40.7077 8.88633 41.4241C8.88633 41.7832 8.98086 41.8968 9.1509 41.8968C9.60452 41.8968 10.3971 37.5732 11.1706 37.5732C11.4161 37.5732 11.5291 37.8188 11.5291 38.0643C11.5291 38.9704 10.3786 41.5751 10.3786 42.3112C10.3786 42.4247 10.4155 42.5187 10.5106 42.5187C10.9827 42.5187 11.9262 40.4806 12.2277 39.4615C12.3977 38.9324 12.6242 38.6488 12.8323 38.6488C13.0208 38.6488 13.1914 38.8569 13.1914 39.2915C13.1914 40.3105 12.2467 42.7078 11.4161 44.313C10.7752 45.5586 9.77456 47.3506 9.77456 48.3512C9.77456 48.8613 9.86736 49.3893 10.604 50.0314C9.39587 49.9559 8.90536 49.8429 8.45289 48.8994C6.43263 52.9197 12.1712 52.5237 10.208 56.0899C9.84891 55.4495 7.01824 54.7884 7.01824 51.051C7.01824 47.8232 9.84891 45.9356 9.84891 44.596C9.84891 44.332 9.75554 44.1055 9.50999 43.898C8.88634 43.3683 8.86731 42.9354 8.3768 42.9354C8.01886 42.9354 7.58311 43.7654 8.03673 44.5015C8.18832 44.747 8.32032 44.898 8.32032 45.1246C8.32032 45.6525 7.48916 47.0676 6.9047 47.0676C6.31908 47.0676 5.86719 45.6162 5.86719 43.2743C5.86719 41.197 6.3381 39.103 6.92372 39.103C7.09318 39.103 7.14966 39.216 7.14966 39.3676C7.14966 39.6131 7.07473 40.103 7.07473 40.9336C7.07473 41.8207 7.28223 41.8968 7.45227 41.8968Z"></path>
<path fill="black" d="M12.2663 47.4276C13.06 47.4276 13.72 46.8414 13.72 45.5411V43.6148C13.72 42.8787 13.777 42.0487 14.2681 41.4625C14.2111 41.7086 14.2111 41.9726 14.2111 42.2182C14.2111 43.8419 15.1166 44.956 15.1166 46.5221C15.1166 47.1066 14.9465 47.4282 14.4946 47.4282C14.06 47.4282 14.0981 47.0316 14.003 47.0316C13.9281 47.0316 13.8145 47.2766 13.8145 47.5412C13.8145 47.9377 14.0975 48.5602 14.8901 48.5602C15.5702 48.5602 16.1166 47.9377 16.1166 47.2391C16.1166 45.5416 14.7955 43.6528 14.7955 41.8412C14.7955 41.0481 15.003 40.5201 15.1731 40.104C15.1731 43.8609 18.3628 46.5976 18.3628 48.1637C18.3628 48.5227 18.0988 48.8063 17.7023 48.8063C17.2682 48.8063 17.0602 48.4657 17.0602 48.2011C17.0602 48.0691 17.0412 48.0317 16.9847 48.0317C16.8723 48.0317 16.5322 48.4092 16.5322 48.9009C16.5322 49.5228 17.0412 50.279 17.9853 50.279C19.0603 50.279 19.6459 49.3718 19.6459 48.5602C19.6459 46.5792 15.7765 43.5773 15.7765 40.3691C15.7765 39.8209 15.8699 38.9339 16.2676 38.2549C13.7759 39.8584 13.0024 41.9922 13.0024 43.8609C13.0024 45.4846 12.9459 46.295 12.1153 46.295C11.6807 46.295 11.5677 45.8996 11.4161 45.8996C11.3032 45.8996 11.2461 46.2391 11.2461 46.333C11.2472 47.031 11.7574 47.4276 12.2663 47.4276Z"></path>
<path fill="black" d="M40.8636 26.1731C41.1033 26.0123 42.1674 26.267 43.5432 25.5869C43.7127 25.4941 43.8827 25.4561 44.0337 25.4561C44.6954 25.4561 44.5254 26.2106 45.13 26.2106C45.6009 26.2106 46.2067 25.814 46.5658 25.814C47.1284 25.814 47.9405 27.5887 47.9405 28.4193C47.9405 29.3819 46.4897 29.9675 44.7709 29.9675C42.2619 29.9675 40.75 27.7778 40.75 26.3616C40.7506 26.2486 40.8076 26.2106 40.8636 26.1731ZM44.979 28.5703C45.8102 28.5703 46.4332 28.1928 46.4332 27.9657C46.4332 27.8913 46.3203 27.8343 46.0741 27.8343C45.8286 27.8343 45.3375 27.8158 44.4118 27.6642C43.6176 27.5322 43.0135 27.2302 42.787 27.2302C42.7115 27.2302 42.6734 27.2677 42.6734 27.3241C42.6734 27.8158 43.5807 28.5703 44.979 28.5703Z"></path>
<path fill="black" d="M12.6628 54.543C12.0403 54.6946 11.0391 55.6744 11.0391 57.2243C11.0391 59.0728 13.0213 61.9243 16.2865 61.9243C19.0417 61.9243 19.7218 60.0175 19.7218 58.7328C19.7218 55.8831 17.9673 53.8818 15.6836 53.8818C14.4375 53.8818 13.3233 54.7879 13.3233 56.1275C13.3233 57.3748 14.2674 59.2429 16.5131 59.2429C17.5702 59.2429 18.1927 58.4866 18.1927 57.6209C18.1927 56.7707 17.4192 55.6012 16.286 55.6012C15.9465 55.6012 15.7015 55.8254 15.7015 56.1857C15.7015 56.6376 16.3234 57.0918 17.0981 57.0918C17.286 57.0918 17.4376 57.0537 17.5137 57.0157C17.5506 57.0739 17.5702 57.1673 17.5702 57.2428C17.5702 57.6774 17.1546 57.9419 16.5131 57.9419C15.5505 57.9419 14.6254 57.2249 14.6254 56.09C14.6254 55.4122 15.211 54.9216 16.06 54.9216C17.7396 54.9216 18.7397 56.4122 18.7397 57.9045C18.7397 59.2434 18.0048 60.0187 16.494 60.0187C13.4737 60.0181 12.0028 57.2993 12.6628 54.543Z"></path>
<path fill="black" d="M34.2088 65.6026C35.1144 65.6026 35.0671 65.5271 35.3507 65.5271C35.6331 65.5271 35.6527 65.6971 35.6527 65.8106C35.6527 66.2262 34.727 66.7358 33.0849 66.7358C32.1223 66.7358 31.5367 66.2256 31.3672 65.6596C30.4237 66.2637 28.9896 66.8113 27.5734 66.8113C23.7046 66.8113 22.7231 65.1299 21.5144 64.5841C20.5892 64.1685 19.1736 64.9806 17.1914 62.7719C17.456 62.829 17.8151 62.8474 18.0981 62.8474C19.8336 62.8474 20.7587 61.9995 20.7587 60.6392C20.7587 60.4686 20.7397 60.2819 20.7207 60.1124C21.2498 60.3199 22.4585 61.2249 22.7421 62.829C22.779 63.018 23.5525 63.1875 24.0436 63.1875C24.7237 63.1875 25.5918 62.9039 25.7238 61.7915C27.989 61.603 29.5187 60.2634 29.8398 58.5625C30.6502 58.8271 31.5753 59.5631 31.8018 59.9418C32.1229 59.8288 32.4998 59.7718 32.9339 59.7718C33.5379 59.7718 34.2181 59.8853 35.029 60.1309C35.0671 59.8853 35.1046 59.5833 35.4827 59.5833C36.0487 59.5833 35.8977 60.2064 36.0867 60.5632C36.1813 60.7522 36.6539 60.8652 36.6539 61.2433C36.6539 61.603 36.3501 61.7355 36.1617 61.7355C36.0862 61.7355 35.9916 61.7165 35.9346 61.6981C35.5576 61.8301 35.538 64.5466 33.9529 64.5466C32.7834 64.5466 31.7073 63.584 31.2346 62.3771C31.1027 62.0186 30.8196 61.7915 30.5551 61.7915C30.2536 61.7915 30.0836 61.8485 29.7257 62.2451C28.7066 63.3575 27.0074 64.3201 24.9122 64.3201C24.2701 64.3201 23.7606 64.2625 23.628 64.2625C23.5519 64.2625 23.5519 64.2815 23.5519 64.2999C23.5519 64.4325 24.1934 64.9426 25.5906 64.9426C28.9129 64.9426 29.7251 63.0734 30.2531 63.0734C30.3297 63.0734 30.5545 63.0734 30.6865 63.376C31.4617 65.187 33.1517 65.6026 34.2088 65.6026ZM32.7454 61.8301C32.7454 62.2457 33.0854 62.5857 33.501 62.5857C33.9166 62.5857 34.2561 62.2457 34.2561 61.8301C34.2561 61.4139 33.9166 61.0738 33.501 61.0738C33.0854 61.0738 32.7454 61.4139 32.7454 61.8301Z"></path>
<path fill="black" d="M47.6965 52.4099C47.432 52.4099 47.149 52.618 47.149 53.1287C47.149 53.693 47.5836 54.0526 47.8285 54.165C47.9611 54.2417 48.1692 54.3172 48.3749 54.3172C48.9231 54.3172 49.3583 54.165 49.3583 53.7114C49.3577 53.1287 48.5069 52.4099 47.6965 52.4099ZM45.6601 53.5794C45.2636 53.5794 43.071 56.5052 41.6582 56.5052C41.3187 56.5052 41.0352 55.8637 41.0352 55.3749C41.0352 55.1103 41.2046 54.9212 41.8104 54.7881C45.0561 54.052 44.3379 51.6162 47.1103 51.6162C48.6389 51.6162 50.3404 52.656 50.3404 54.9956C50.3404 57.4874 46.7939 60.582 46.2648 60.582C45.8302 60.582 45.3581 59.9595 45.3581 59.5445C45.3581 59.4125 45.4152 59.2425 45.7927 59.0915C47.6026 58.3733 48.6395 56.7127 48.6395 55.8625C48.6395 55.6734 48.5456 55.4867 48.3 55.4867C47.9795 55.4867 46.6054 58.6188 45.0745 58.6188C44.0157 58.6188 42.939 57.6585 42.939 57.2043C42.939 56.4481 46.0002 55.0527 46.0002 53.9944C45.9996 53.5973 45.8112 53.5794 45.6601 53.5794Z"></path>
<path fill="black" d="M8.3005 28.8354C8.3005 28.8354 7.75351 29.2498 7.07394 29.2498C6.26295 29.2498 5.62085 28.6464 5.62085 27.7968C5.62085 27.2111 5.92288 26.6077 6.62089 26.305C6.60245 26.4186 6.60245 26.5125 6.60245 26.6261C6.60187 27.7028 7.20593 28.5138 8.3005 28.8354ZM12.3399 32.4598C11.9249 32.9497 11.4903 33.7809 11.4903 34.6299C11.4903 35.649 12.1139 36.498 13.0765 36.498C14.001 36.498 14.4356 35.7054 14.4356 34.8945C14.4356 33.6298 13.284 32.7416 12.3399 32.4598ZM6.0739 33.2143C6.03816 33.2725 6.01683 33.3468 6.01683 33.4223C6.01683 33.5924 6.20589 33.7809 6.37477 33.7809C6.52579 33.7809 6.62032 33.7434 6.69582 33.7434C7.14829 33.7434 7.6584 34.0639 8.39446 34.0639C8.8279 34.0639 9.33801 33.9313 9.97954 33.6114C11.3387 32.9313 11.8678 31.2517 11.8678 30.9681C11.8678 30.609 11.5796 30.6562 11.3387 30.326C11.0977 29.9968 11.19 29.7058 11.0366 29.5519C10.9496 29.4637 10.6787 29.4579 10.3381 29.4199C10.2245 29.4078 10.0735 29.4009 9.92247 29.4009C9.30055 29.4009 8.56219 29.4775 7.73333 30.0055C6.09638 31.0505 6.33731 32.7802 6.0739 33.2143ZM10.5092 30.8735C10.6401 31.0516 11.0009 31.2707 11.0009 31.4027C11.0009 31.6661 10.8487 32.0067 10.5473 32.0067C9.88616 32.0067 9.35818 31.0061 9.35818 30.4389C9.35818 30.081 9.56626 30.0435 9.84869 30.0435C9.98069 30.0435 10.0378 30.0626 10.1317 30.119C10.3012 30.2136 10.3012 30.5905 10.5092 30.8735ZM8.77199 33.1768C8.14949 33.1768 7.46992 32.4033 7.46992 31.7041C7.46992 31.3272 7.75293 30.8545 7.96043 30.8545C8.03594 30.8545 8.07398 30.9116 8.09243 31.0442C8.2054 31.9687 8.81004 32.4978 9.37663 32.7612C9.43312 32.7987 9.47116 32.8177 9.47116 32.8552C9.47116 32.9877 9.11206 33.1768 8.77199 33.1768ZM10.3772 28.4198C10.4712 28.1172 10.5467 27.7408 10.5467 27.3247C10.5467 26.4192 10.1306 25.041 8.8475 25.041C8.11202 25.041 7.58232 25.6261 7.58232 26.3246C7.58232 27.8163 9.07402 28.4198 10.3772 28.4198ZM5.48828 35.97C5.48828 37.4041 5.92288 38.0842 6.6964 38.0842C7.30046 38.0842 8.11202 37.6496 9.07402 36.819C8.33855 36.9891 7.77137 37.1026 7.26242 37.1026C6.58285 37.1026 6.05488 36.8381 5.48828 35.97ZM6.1494 34.2898C6.13096 34.3849 6.13096 34.4789 6.13096 34.5728C6.13096 35.4599 6.60187 35.951 7.22495 35.951C7.69529 35.951 8.24402 35.668 8.73337 35.0443C8.52703 35.0818 8.28091 35.1008 8.05438 35.1008C7.35695 35.1008 6.60187 34.9129 6.1494 34.2898ZM10.7738 34.0258C10.3386 34.1388 9.43312 34.6674 9.43312 35.6109C9.43312 36.2899 9.96109 36.7251 10.6222 36.7251C10.9623 36.7251 11.2073 36.649 11.3583 36.536C10.8303 36.0265 10.6412 35.4599 10.6412 34.8945C10.6412 34.4973 10.6977 34.2524 10.7738 34.0258ZM11.4528 28.8539C11.4528 29.2689 11.7923 29.6095 12.2073 29.6095C12.6229 29.6095 12.9629 29.2694 12.9629 28.8539C12.9629 28.4389 12.6229 28.0982 12.2073 28.0982C11.7923 28.0982 11.4528 28.4389 11.4528 28.8539ZM12.4338 30.5525C12.4338 30.9681 12.7745 31.3081 13.1906 31.3081C13.605 31.3081 13.9451 30.9681 13.9451 30.5525C13.9451 30.1381 13.605 29.798 13.1906 29.798C12.7739 29.798 12.4338 30.1381 12.4338 30.5525Z"></path>
<path fill="black" d="M41.8855 39.8199C41.8855 39.4429 42.2256 39.1219 42.5985 39.1219C43.0147 39.1219 43.3357 39.4429 43.3357 39.8199C43.3357 40.2539 43.0141 40.5565 42.5985 40.5565C42.2256 40.5565 41.8855 40.2539 41.8855 39.8199ZM35.2581 34.0064C35.2581 34.4214 35.5988 34.7615 36.0126 34.7615C36.4294 34.7615 36.7694 34.4214 36.7694 34.0064C36.7694 33.592 36.4288 33.2519 36.0126 33.2519C35.5988 33.2519 35.2581 33.592 35.2581 34.0064ZM34.6172 36.6676C34.6172 37.2532 35.1065 37.7432 35.6927 37.7432C36.2772 37.7432 36.7694 37.2532 36.7694 36.6676C36.7694 36.0831 36.2772 35.5915 35.6927 35.5915C35.1065 35.5915 34.6172 36.0831 34.6172 36.6676ZM36.996 35.4595C36.996 36.1022 37.5061 36.6111 38.1441 36.6111C38.7857 36.6111 39.2975 36.1022 39.2975 35.4595C39.2975 34.818 38.7857 34.3084 38.1441 34.3084C37.5061 34.3084 36.996 34.818 36.996 35.4595ZM37.0911 33.0058C37.0911 33.4029 37.4121 33.7245 37.8046 33.7245C38.2012 33.7245 38.5223 33.4029 38.5223 33.0058C38.5223 32.6104 38.2006 32.2893 37.8046 32.2893C37.4121 32.2893 37.0911 32.6104 37.0911 33.0058ZM40.5062 31.1947C40.5062 31.5902 40.8273 31.9112 41.2244 31.9112C41.6209 31.9112 41.9426 31.5902 41.9426 31.1947C41.9426 30.7976 41.6209 30.4766 41.2244 30.4766C40.8273 30.4766 40.5062 30.7976 40.5062 31.1947ZM39.0894 33.5165C39.0894 34.1764 39.637 34.7234 40.2981 34.7234C40.9598 34.7234 41.508 34.1764 41.508 33.5165C41.508 32.8548 40.9604 32.3083 40.2981 32.3083C39.637 32.3083 39.0894 32.8548 39.0894 33.5165ZM37.147 37.9328C37.147 38.3484 37.487 38.6873 37.8992 38.6873C38.3147 38.6873 38.6554 38.3484 38.6554 37.9328C38.6554 37.5172 38.3147 37.1777 37.8992 37.1777C37.487 37.1777 37.147 37.5172 37.147 37.9328ZM39.6186 36.4221C39.6186 36.8376 39.958 37.1777 40.3748 37.1777C40.7898 37.1777 41.1299 36.8376 41.1299 36.4221C41.1299 36.0076 40.7898 35.6676 40.3748 35.6676C39.958 35.6676 39.6186 36.0076 39.6186 36.4221ZM38.92 39.0838C38.92 39.8009 39.505 40.3865 40.2232 40.3865C40.9408 40.3865 41.5276 39.8009 41.5276 39.0838C41.5276 38.3668 40.9408 37.7812 40.2232 37.7812C39.505 37.7812 38.92 38.3668 38.92 39.0838ZM41.6394 37.4786C41.6394 37.9703 42.0365 38.3668 42.5242 38.3668C43.0152 38.3668 43.4118 37.9703 43.4118 37.4786C43.4118 36.9887 43.0152 36.5921 42.5242 36.5921C42.0365 36.5921 41.6394 36.9887 41.6394 37.4786ZM41.5829 35.1004C41.5829 35.5356 41.9426 35.8941 42.372 35.8941C42.8072 35.8941 43.1663 35.5356 43.1663 35.1004C43.1663 34.6669 42.8072 34.3084 42.372 34.3084C41.9426 34.3084 41.5829 34.6669 41.5829 35.1004Z"></path>
<path fill="black" d="M43.5026 59.8667C43.0116 60.2448 41.8634 61.0927 39.9549 61.0927C38.9353 61.0927 38.4817 60.7717 38.3307 60.7717C38.1416 60.7717 37.9341 60.9601 37.726 61.2063C37.2776 61.7354 36.6914 62.717 36.6914 63.792C36.6914 64.5465 37.2776 65.3004 38.3681 65.3004C41.9014 65.3004 44.5419 63.0928 44.5419 61.3008C44.5419 60.2823 43.9378 59.8667 43.5026 59.8667ZM42.521 59.6592C42.6738 59.529 42.7095 59.3197 42.7095 59.1111V58.677C42.7095 58.1289 41.8824 57.8096 40.7486 57.8096C39.3693 57.8096 38.6327 58.4309 38.6327 58.6961V59.5641C38.6327 59.9238 39.4644 60.2823 40.4846 60.2823C41.2968 60.2823 42.0334 60.0748 42.521 59.6592ZM42.3689 61.5279C42.464 61.5279 42.5764 61.5838 42.5764 61.9244C42.5764 62.3389 42.3885 62.8859 41.7118 63.3193C41.2397 63.6415 40.597 63.9061 39.6529 63.9228C39.8039 63.4715 39.9175 62.9983 39.9175 62.5475C39.9175 62.3959 39.899 62.2824 39.88 62.1129H40.1256C41.6178 62.1135 42.2605 61.5279 42.3689 61.5279Z"></path>
<path fill="black" d="M35.1613 38.4619C35.3688 40.0654 37.5228 39.2539 37.5228 41.1975C37.5228 41.4811 37.4473 41.8972 37.4473 42.2552C37.4473 42.6707 37.4842 43.0293 37.8023 43.0293C38.1228 43.0293 38.1989 42.8033 38.1989 42.5007C38.1989 42.1981 38.1228 41.8211 38.1228 41.6136C38.1228 40.9525 38.5955 40.8021 38.8796 40.8021C39.5972 40.8021 40.1448 41.5381 41.2221 41.5381C40.976 42.7462 38.4825 42.4252 38.4825 43.7469C38.4825 44.408 39.1436 44.5578 39.5782 44.5578C39.9748 44.5578 40.1073 44.5014 40.1073 44.1624C40.1073 43.9728 40.0693 43.7653 40.0693 43.6333C40.0693 43.5572 40.1264 43.4817 40.2209 43.4817C40.6376 43.4817 42.6723 45.0299 42.6723 45.5026C42.6723 45.936 40.5229 46.37 39.8998 46.37C39.7108 46.37 39.6727 46.238 39.6727 46.1625C39.6727 46.0305 39.9938 45.634 39.9938 45.408C39.9938 45.238 39.7108 45.1244 38.9546 45.1244C38.5955 45.1244 38.3309 45.1625 38.3309 45.4461C38.3309 45.9544 39.1621 46.5781 39.1621 47.049C39.1621 47.4271 38.9355 47.6537 38.3309 47.6537C37.8208 47.6537 37.0496 47.2565 37.0496 46.5966C37.0496 46.068 37.5943 45.5406 37.5943 45.219C37.5943 45.1244 37.5222 44.9734 37.2957 44.9734C36.596 44.9734 36.4075 46.8225 33.9336 47.0306C34.3302 46.6721 34.6691 46.2755 34.6691 45.4651C34.6691 45.0685 34.5757 44.7469 34.5757 44.3135C34.5757 43.7469 34.8391 43.4633 35.2166 43.4633C35.9147 43.4633 36.2547 44.4443 36.7095 44.4443C36.9556 44.4443 37.2196 44.2189 37.2196 43.8789C37.2196 42.4442 34.4627 42.6517 34.4627 40.632C34.4633 40.0845 34.6512 39.4049 35.1613 38.4619ZM44.1646 43.9924C44.1646 44.4633 44.3167 45.0109 44.7888 45.0109C45.1854 45.0109 45.5249 44.408 45.5249 43.7469C45.5249 42.9918 45.3929 42.4062 45.3929 42.1036C45.3929 41.9721 45.4499 41.9157 45.5249 41.9157C45.8084 41.9347 46.0724 42.7082 46.3756 42.7082C46.7157 42.7082 47.2223 42.0845 47.4293 42.0845C47.4863 42.0845 47.5048 42.1606 47.5048 42.1791C47.5048 42.4627 47.0702 43.0863 47.0702 43.3313C47.0702 43.5388 48.1659 43.5763 48.1659 43.7653C48.1659 44.0489 47.0171 44.0489 46.4701 44.2944C45.9416 44.5204 45.6188 44.8034 45.6188 45.1815C45.6188 45.559 45.9969 45.634 46.5261 45.634C47.7872 45.634 48.6748 44.955 48.9579 44.955C49.0143 44.955 49.0518 44.9919 49.0518 45.0489C49.0518 45.238 48.4103 45.8605 48.4103 46.1441C48.4103 46.4646 49.5815 46.8409 49.5625 47.0306C49.544 47.0871 49.468 47.1055 49.336 47.1055C49.1273 47.1055 48.8068 47.049 48.5607 47.049C48.4097 47.049 48.2777 47.0675 48.2201 47.143C48.0892 47.2946 48.2581 48.2952 47.9953 48.2952C47.7492 48.2952 47.1071 46.068 45.6569 46.068C45.4488 46.068 45.2978 46.238 45.2978 46.521C45.2978 47.2755 46.0344 48.1436 46.7336 48.5592C47.05 48.7672 47.5797 48.9747 47.5797 49.0889C47.5797 49.3142 46.3745 49.1073 46.3745 49.4843C46.3745 49.8244 46.5255 50.335 46.5255 50.6359C46.5255 50.7304 46.5065 50.8428 46.3935 50.8428C46.167 50.8428 45.6182 49.8053 45.3542 49.8053C45.1277 49.8053 44.6366 50.4278 44.4286 50.4278C44.3721 50.4278 44.3346 50.3713 44.3346 50.3154C44.3346 49.8808 45.0338 48.8998 45.0338 47.9367C45.0338 47.4836 44.9767 46.502 44.4286 46.502C43.9755 46.502 43.4648 47.2191 43.2383 47.9367C43.1069 48.3517 43.2008 49.9563 42.8982 49.9563C42.6152 49.9563 42.6907 48.8808 42.312 48.8808C42.0336 48.8808 41.429 49.3898 41.2209 49.3898C41.1829 49.3898 41.1448 49.3707 41.1448 49.3333C41.1448 49.1073 41.693 48.3707 41.693 48.2197C41.693 47.9367 40.4463 47.8992 40.4463 47.6727C40.4463 47.5401 40.9373 47.4462 41.3904 47.3701C42.3507 47.2 43.7669 46.502 43.7669 45.521C43.7669 44.4264 42.7092 43.9538 42.014 43.5007C41.655 43.2742 41.2584 43.0863 41.2584 42.9353C41.2584 42.7837 41.7114 42.7837 41.9005 42.7837C42.1835 42.7837 42.4636 42.7647 42.4636 42.5387C42.4636 42.3681 42.4256 42.0292 42.4256 41.7646C42.4256 41.5756 42.444 41.4246 42.5207 41.4246C42.8037 41.4246 43.2003 42.3491 43.3899 42.3491C43.6914 42.3491 44.1069 41.594 44.3911 41.594C44.4845 41.594 44.5231 41.6511 44.5231 41.8206C44.5242 42.5191 44.1646 43.3117 44.1646 43.9924Z"></path>
<path fill="black" d="M35.7091 49.2197C36.5783 49.3333 36.7864 49.6347 36.7864 49.8809C36.7864 50.2964 36.4083 50.4279 36.0486 50.4279C35.7852 50.4279 35.4826 50.3714 35.1615 50.3714C34.7454 50.3714 34.331 50.4659 33.9915 50.8625C34.2364 50.8999 34.5955 51.0705 34.5955 51.4486C34.5955 52.5432 31.5568 51.636 31.5568 54.4499C31.5568 55.9405 33.105 57.5648 35.4446 57.5648C36.6544 57.5648 37.4285 57.1682 37.4285 56.714C37.4285 56.3561 36.787 56.6004 36.787 56.2984C36.787 56.1664 37.0135 55.9203 37.0135 55.7117C37.0135 55.6206 36.938 55.4494 36.787 55.4494C36.4457 55.4494 35.8036 55.9952 34.501 55.9952C33.4814 55.9952 32.4807 55.4119 32.4807 54.6182C32.4807 54.4488 32.5568 54.3537 32.6698 54.3537C32.7833 54.3537 32.9338 54.4297 33.0664 54.4297C33.1799 54.4297 33.1984 54.3537 33.1984 54.1467C33.1984 53.9387 33.1984 53.353 33.5563 53.353C33.916 53.353 34.5955 54.6747 37.202 54.6747C38.0671 54.6747 39.7485 54.5058 40.3721 53.9387C40.3531 56.0154 38.7277 58.7521 35.3316 58.7521C31.8017 58.7521 29.9141 55.9203 29.9141 53.315C29.9141 50.4279 32.2727 47.8047 35.5016 47.8047C36.331 47.8047 37.0314 48.0871 37.0314 48.4462C37.0308 48.9379 35.8031 48.6353 35.7091 49.2197ZM41.5048 50.2215C41.6367 50.4279 41.6938 50.6359 41.6938 50.8244C41.6938 51.3535 41.3347 51.8441 41.3347 52.3922C41.3347 53.0147 41.8074 53.5237 42.5215 53.5237C43.2956 53.5237 43.8247 52.9023 43.8247 52.1651C43.8247 51.1645 42.9181 50.3155 41.5048 50.2215ZM35.2555 51.429C35.4434 51.617 35.501 51.806 35.501 51.9951C35.501 52.2781 35.369 52.5807 35.369 52.9017C35.369 53.353 35.7091 53.7502 36.1991 53.7502C36.7288 53.7502 37.0884 53.334 37.0884 52.8452C37.0884 52.1276 36.3495 51.429 35.2555 51.429ZM37.7645 48.2197C39.7479 48.5972 40.8246 50.0889 40.8246 51.4861C40.8246 52.4493 40.2205 53.3346 39.1623 53.3346C38.1986 53.3346 37.5034 52.6746 37.5034 51.6175C37.5034 50.825 38.1225 49.9944 38.1225 49.1823C38.1225 48.8618 38.0285 48.5407 37.7645 48.2197ZM38.7467 50.7305C38.7467 50.9944 38.9358 51.2025 39.2003 51.2025C39.5018 51.2025 39.6914 50.938 39.6914 50.6359C39.6914 50.2399 39.3323 49.6924 38.9923 49.6924C38.8407 49.6924 38.8977 49.9189 38.8603 50.1644C38.8407 50.3523 38.7467 50.5789 38.7467 50.7305Z"></path>
<path fill="black" d="M17.9117 31.3077C18.5532 31.3077 19.2887 27.8343 19.2887 27.2487C19.2887 27.0977 19.2328 26.9841 19.1008 26.9841C18.5152 26.9841 17.7042 30.288 17.7042 31.0247C17.7036 31.1567 17.7411 31.3077 17.9117 31.3077ZM22.5361 32.3458C23.007 32.3458 23.5356 30.533 23.5356 29.4004C23.5356 29.1548 23.4981 28.8914 23.384 28.8914C22.9874 28.8914 22.3269 30.7601 22.3269 31.7792C22.3275 32.1757 22.4226 32.3458 22.5361 32.3458ZM19.4576 30.6656C19.6651 30.6656 19.9297 30.4379 20.4219 29.8921C20.4588 29.6465 20.4588 29.4194 20.4588 29.1364C20.4588 28.7594 20.3078 28.3439 20.0818 28.3439C19.5147 28.3439 19.2322 29.854 19.2322 30.2511C19.2328 30.4765 19.3452 30.6656 19.4576 30.6656ZM22.0444 29.8921C22.0444 29.5704 21.9684 29.4949 21.8934 29.4949C21.7044 29.4949 21.4974 29.722 21.1954 30.2315C21.2329 30.9111 21.3464 31.2131 21.5349 31.2131C21.7424 31.2131 22.0444 30.552 22.0444 29.8921ZM23.4981 27.6643C24.7443 27.6643 25.3097 28.7404 25.3097 29.9485C25.3097 30.4765 25.1598 31.2512 24.9143 31.2512C24.6688 31.2512 24.7068 30.8166 24.6688 30.42C24.6313 29.9105 24.5362 29.7975 24.3662 29.7975C24.0451 29.7975 23.8382 30.552 23.8382 31.2512C23.8382 31.6846 23.9137 32.1757 24.2526 32.1757C24.4417 32.1757 24.6117 32.0812 24.7252 31.9682C24.6497 32.8357 24.0071 33.5919 23.1015 33.5919C21.4404 33.5919 20.8173 31.6472 20.6294 30.5146C19.6288 31.5717 18.7042 32.3458 17.0425 32.3458C15.4955 32.3458 14.7969 31.2131 14.7969 30.1376C14.7969 29.816 14.9098 28.986 15.307 28.986C15.7785 28.986 15.3635 30.533 16.288 30.533C16.5151 30.533 16.929 30.3439 17.1566 29.722C17.2886 29.3439 17.3641 28.9485 17.3641 28.6078C17.3641 28.0977 17.2512 27.7778 16.8736 27.7778C16.552 27.7778 16.1554 28.0222 16.0234 28.1548C16.4771 26.7957 17.5716 26.0977 18.778 26.0977C20.2709 26.0977 21.0628 27.4187 21.0628 28.8914C21.0628 29.0984 21.0438 29.3249 21.0058 29.533C21.6479 28.4759 22.5361 27.6643 23.4981 27.6643Z"></path>
<path fill="black" d="M19.9691 32.7412C19.1575 32.7412 19.1201 33.7245 19.1201 35.705C18.5154 34.403 17.516 33.0058 16.3453 33.0058C15.5528 33.0058 15.2513 33.5349 15.2513 34.4589C15.2513 34.6479 15.2698 34.9315 15.3078 35.1004C15.4023 34.7805 15.7044 34.6479 16.0813 34.6479C16.8941 34.6479 17.8751 35.2704 18.5166 36.1206C17.7811 35.9886 17.0635 35.856 16.46 35.856C16.0819 35.856 15.7424 35.8941 15.4594 36.0261C14.9118 36.271 14.1758 37.0832 14.1758 38.3103C14.1758 38.4994 14.1948 38.7063 14.2328 38.9328C14.8934 37.4601 16.6485 36.7996 17.7811 36.7996C18.0082 36.7996 18.1771 36.8186 18.3097 36.8376C17.7241 37.3656 17.5926 38.2907 17.554 38.9138C17.5362 39.2158 17.422 39.2354 17.2139 39.2354C17.2139 39.8574 17.7056 40.783 17.7056 41.2545C17.7056 41.4246 17.6111 41.5756 17.5171 41.6136C17.5171 42.4442 18.3466 43.0483 18.3466 43.5762C18.3466 43.7082 18.3097 43.8218 18.252 43.8789C18.3097 44.2189 19.2227 44.7901 19.3408 45.0766C19.4861 45.4247 19.6492 45.4835 19.7437 45.4835C20.0648 45.4835 20.5732 45.1054 20.5732 44.7653C20.5732 44.6524 20.4786 44.5204 20.4043 44.4633C20.0452 44.1999 19.8561 43.6333 19.7051 43.2564C19.5726 43.2564 19.4019 43.2004 19.342 42.978C19.2388 42.5872 19.2336 41.8592 19.0826 41.4246C18.8371 41.3681 18.7235 41.2736 18.7235 40.764C18.7235 40.5185 18.8751 39.5553 18.8751 39.2153C18.7621 39.2153 18.6111 39.1398 18.6111 38.9132C18.6111 38.3097 19.2158 37.8377 19.3846 37.0642C20.4608 37.8561 20.7242 38.6677 20.7242 39.3859C20.7242 39.7623 20.6677 40.1213 20.5922 40.462C21.3853 40.0649 22.5744 39.4798 22.5744 38.2907C22.5744 37.5916 22.2534 36.818 20.1201 36.516C20.7807 36.2705 21.6118 36.139 22.3098 36.139C23.5185 36.139 24.2165 36.516 24.367 37.365C24.6125 36.9881 24.8016 36.5535 24.8016 36.1575C24.8016 35.2318 24.0269 34.6289 23.0459 34.6289C21.8943 34.6289 20.8752 35.2318 19.7801 35.969C20.2723 34.9499 20.6101 34.3459 21.2153 34.3459C21.3092 34.3459 21.4038 34.3649 21.4983 34.3839C21.2718 33.5539 20.4227 32.7412 19.9691 32.7412Z"></path>
<path fill="black" d="M51.7712 46.3516C52.7165 46.3516 53.4716 47.5781 53.4716 49.0133C53.4716 50.5419 52.7534 52.2037 51.4732 53.3351C51.4542 50.7875 48.3359 51.599 48.3359 49.75C48.3359 48.9574 48.9037 48.4283 49.5838 48.4283C50.1885 48.4283 50.6605 48.5983 51.0006 48.939C50.6605 48.6174 50.4905 48.1637 50.4905 47.7303C50.4905 47.0115 50.9441 46.3516 51.7712 46.3516Z"></path>
<path fill="black" d="M34.9163 28.4194C35.408 28.8915 35.8408 29.0984 36.37 29.0984C36.5786 29.0984 36.8247 29.0425 36.9573 29.0425C37.1273 29.0425 37.2397 29.1174 37.2397 29.2494C37.2397 29.4575 37.0507 29.7976 36.8247 29.9866C37.0507 30.0806 37.2968 30.1186 37.5614 30.1186C38.6335 30.1186 39.8612 29.4385 39.8612 27.7404C40.0888 28.0413 40.2208 28.6649 40.2208 28.9485C40.2208 31.0057 38.709 31.7982 37.3152 31.7982C36.4086 31.7982 35.9544 31.4956 35.8402 31.4956C35.4823 31.4956 35.5013 32.2138 35.2558 32.1948C34.8212 32.1193 34.4258 31.1567 34.4258 30.1376C34.4264 29.533 34.5774 28.8915 34.9163 28.4194ZM37.7654 27.0413C37.6144 26.7957 37.0507 26.6643 36.7873 26.6643C35.955 26.6643 35.3884 27.2488 35.2754 27.7779C35.1999 27.5888 35.1434 27.3623 35.1434 27.1358C35.1434 26.3052 35.71 25.2861 37.0899 25.2861C38.2945 25.2861 38.7666 25.9277 38.9372 25.9277C39.1257 25.9277 39.3147 25.7386 39.4663 25.7386C39.6738 25.7386 39.6738 26.0597 39.6738 26.2868C39.6738 27.0413 39.3332 28.3439 38.4836 28.816C38.332 28.4949 38.03 28.1358 37.5423 27.9099C37.4103 27.8534 37.3539 27.7404 37.3539 27.6269C37.3533 27.4188 37.5418 27.1542 37.7654 27.0413Z"></path>
<path fill="black" d="M21.7987 22.927C21.7987 23.5876 24.1578 26.8154 24.6115 26.8154C24.9896 26.8154 25.272 26.1548 25.272 25.5877C25.272 25.4378 25.234 25.2874 25.1596 25.1732C24.8195 24.7012 22.4223 22.8135 21.8932 22.8135C21.8361 22.8135 21.7987 22.8705 21.7987 22.927ZM7.92487 20.9829C7.92487 21.361 6.4908 22.625 5.98185 22.625C5.79337 22.625 5.73573 22.3991 5.73573 22.1915C5.73573 21.8146 5.90577 21.2855 6.11384 21.1148C6.35823 20.8883 6.92483 20.7765 7.35885 20.7765C7.62284 20.7765 7.92487 20.8318 7.92487 20.9829ZM25.1596 22.078C25.1596 20.9448 22.0972 18.8877 22.0632 18.0012C22.0598 17.9199 22.1041 17.8392 22.1727 17.7672C22.6973 17.2138 24.8754 16.8103 24.8754 16.3389C24.8754 16.0945 24.4218 16.0945 24.1953 16.0945C22.4402 16.0945 19.8729 16.736 19.8729 17.3585C19.8729 18.0012 22.1756 19.5678 22.1756 20.3419C22.1756 20.5494 22.0436 20.6249 21.8355 20.6249C21.1946 20.6249 19.7974 19.8502 19.1369 19.8502C18.8348 19.8502 18.7207 20.0577 18.7207 20.3609C18.7207 21.2664 19.7968 22.9841 19.7968 23.4925C19.7968 23.5495 19.7778 23.625 19.7023 23.625C19.3622 23.625 17.7593 21.7385 17.1921 21.7385C16.9852 21.7385 16.9656 22.0209 16.9656 22.4365V23.078C16.9656 23.5121 16.9466 23.7766 16.7402 23.7766C16.248 23.7766 16.022 22.3991 15.5506 22.3991C15.0595 22.3991 14.9649 24.8522 14.494 24.8522C13.9459 24.8522 14.4179 22.1529 13.8894 22.1529C13.3043 22.1529 12.6432 23.9467 12.2276 23.9467C12.0772 23.9467 12.0397 23.7951 12.0397 23.6631C12.0397 23.1161 12.3596 22.229 12.3596 21.701C12.3596 21.4359 12.2841 21.2855 12.0588 21.2855C11.4726 21.2855 10.1895 22.229 9.69901 22.229C9.6235 22.229 9.52897 22.1915 9.52897 22.1155C9.52897 21.6636 11.5861 20.2284 11.5861 19.5868C11.5861 18.9632 8.75372 19.3793 8.75372 18.6611C8.75372 18.0577 10.7751 17.4346 10.7751 16.8115C10.7751 16.2639 8.37734 16.0195 7.45281 16.0195C6.33864 16.0195 5.73515 16.1504 5.73515 16.4714C5.73515 16.9625 8.26494 17.1141 8.26494 17.5475C8.26494 17.9631 5.64062 19.0767 5.64062 19.7182C5.64062 20.2848 9.33992 19.7557 9.33992 20.3419C9.33992 20.9829 6.11327 23.757 6.11327 24.6821C6.11327 24.8902 6.26428 24.9848 6.47121 24.9848C7.45281 24.9848 9.99989 23.1161 10.6991 23.1161C10.9446 23.1161 10.9636 23.4175 10.9636 23.6821C10.9636 24.1732 10.7942 24.9277 10.7942 25.4758C10.7942 25.9093 10.9071 26.2113 11.2841 26.2113C11.9838 26.2113 12.6242 25.0222 13.0974 25.0222C13.7009 25.0222 13.3424 28.514 14.2485 28.514C15.022 28.514 15.3425 24.7392 15.8336 24.7392C16.3246 24.7392 16.7218 25.8338 17.1743 25.8338C17.7397 25.8338 17.4757 23.9276 18.0803 23.9276C18.7403 23.9276 20.628 26.1929 21.4776 26.1929C21.7416 26.1929 21.8355 25.9848 21.8355 25.7202C21.8355 24.7196 20.4395 22.4555 20.4395 21.7385C20.4395 21.55 20.4954 21.493 20.7029 21.493C21.439 21.493 23.5918 22.512 24.6103 22.512C24.9527 22.512 25.1596 22.3235 25.1596 22.078ZM23.1958 18.3407C23.1958 18.6802 24.3849 19.4168 24.9331 19.4168C25.2536 19.4168 25.3481 18.9822 25.3481 18.5291C25.3481 17.9631 25.1037 17.9441 24.612 17.9441C23.989 17.9441 23.1958 18.1141 23.1958 18.3407ZM18.7599 16.4149C18.7599 16.3014 18.1939 16.1878 17.4204 16.1878C16.1932 16.1878 16.3633 17.2086 15.4197 17.2086C14.4381 17.2086 14.6825 16.1504 13.4369 16.1504C12.6818 16.1504 11.9844 16.2829 11.9844 16.4524C11.9844 16.6795 12.8709 16.585 12.8709 17.2086C12.8709 17.8686 10.9642 18.0577 10.9642 18.4542C10.9642 18.5862 11.1146 18.6427 11.3037 18.6427C11.7198 18.6427 12.3792 18.4542 12.8519 18.4542C13.1164 18.4542 13.362 18.5101 13.362 18.7557C13.362 19.2277 12.3418 20.0773 12.3418 20.4549C12.3418 20.5684 12.4357 20.6065 12.5303 20.6065C12.9084 20.6065 13.5505 19.6433 14.154 19.6433C15.1546 19.6433 14.4946 21.776 15.041 21.776C15.607 21.776 15.3621 19.6802 16.1736 19.6802C16.8353 19.6802 17.3253 21.1339 17.7783 21.1339C17.8919 21.1339 17.9858 21.0399 17.9858 20.9073C17.9858 20.5119 17.4198 19.6992 17.4198 19.1712C17.4198 18.8502 17.6463 18.6986 17.9483 18.6986C18.3818 18.6986 18.9674 18.9632 19.2873 18.9632C19.4003 18.9632 19.5138 18.9257 19.5138 18.7937C19.5138 18.3407 17.8354 17.8502 17.8354 17.2651C17.836 16.6795 18.7599 16.6795 18.7599 16.4149Z"></path>
<path fill="black" d="M52.2233 19.4735C52.2233 21.1525 50.9996 22.4362 48.7886 22.7947C49.0347 22.8131 49.2612 22.8131 49.4883 22.8131C52.0723 22.8131 53.0176 21.6436 53.0176 20.6626C53.0176 20.1144 52.715 19.6245 52.2233 19.4735ZM49.0347 21.3791C49.0347 20.0389 45.8282 19.6989 45.8282 19.3974C45.8282 19.1524 47.6185 18.7363 48.5436 18.7173C47.128 16.9057 45.1106 17.0947 45.1106 16.7737C45.1106 16.5846 46.6214 16.2065 48.0162 16.2065C49.1863 16.2065 50.2814 16.4711 50.2814 17.3581C50.2814 17.8498 49.8849 18.3599 49.8849 19.1138C49.8849 19.5294 50.0912 19.8879 50.6405 19.8879C51.2273 19.8879 51.3582 19.2654 51.3582 18.6037C51.3582 18.0573 51.2642 17.6417 51.2642 17.3772C51.2642 16.5846 51.8077 16.0566 52.5824 16.0566C53.2245 16.0566 53.3761 16.3385 54.3208 16.3385C53.8101 16.6417 53.6216 17.1893 53.6216 17.4527C53.6216 18.2464 54.1329 18.7934 54.1329 20.4171C54.1329 23.3982 51.3397 24.4553 47.9217 24.4553C46.9822 24.4553 45.9798 24.3798 44.9971 24.2293C44.8466 24.2103 44.8086 24.1728 44.8086 24.0783C44.8086 23.8328 46.1504 23.7002 46.1504 22.4932C46.1504 22.0206 45.9988 21.5681 45.9988 21.3987C45.9988 21.3041 46.0744 21.2471 46.1504 21.2471C46.4334 21.2471 47.0012 22.3416 48.0548 22.3416C48.335 22.3416 49.0347 22.2471 49.0347 21.3791ZM52.1103 17.2083C52.1103 17.4717 52.3178 17.6792 52.5824 17.6792C52.847 17.6792 53.0551 17.4717 53.0551 17.2083C53.0551 16.9437 52.847 16.7356 52.5824 16.7356C52.3178 16.7356 52.1103 16.9437 52.1103 17.2083Z"></path>
<path fill="black" d="M50.4345 34.6483C50.4345 34.2523 49.4327 34.2148 49.3388 33.1007C49.3192 32.9312 49.2627 32.6297 49.0546 32.6297C48.7151 32.6297 48.9791 33.6678 48.6015 33.6678C47.7335 33.6678 47.4505 31.9686 47.1294 31.9686C47.0534 31.9686 46.9634 32.0251 46.9634 32.2516C46.9634 32.4597 47.0015 32.5917 47.0015 32.8361C47.0015 33.0822 46.9438 33.2522 46.7179 33.2522C46.2078 33.2522 45.7542 32.0626 45.3196 32.0626C45.225 32.0626 45.1311 32.1196 45.1311 32.2142C45.1311 32.4407 45.508 32.8551 45.508 33.0632C45.508 33.5168 44.2803 33.2707 44.2803 33.6488C44.2803 33.8188 44.4498 33.8748 44.6769 33.8748C45.074 33.8748 45.6977 33.7059 46.0187 33.7059C46.2078 33.7059 46.4908 33.7433 46.4908 33.9877C46.4908 34.2523 45.8106 34.5918 45.8106 34.8373C45.8106 34.9509 45.9236 35.0068 46.0181 35.0068C46.5283 35.0068 47.4309 34.1203 48.073 34.1203C48.186 34.1203 48.469 34.1768 48.469 34.3468C48.469 34.5918 47.8274 35.0252 47.8274 35.3843C47.8274 35.4789 47.8851 35.5918 47.9981 35.5918C48.3358 35.5918 48.7894 34.7053 49.4321 34.7053C49.6777 34.7053 50.0368 34.7999 50.2264 34.7999C50.378 34.7999 50.4345 34.7053 50.4345 34.6483ZM50.9256 43.8031C51.2282 42.8601 51.6063 42.1984 52.2248 41.1794C51.6063 40.8595 49.9618 40.1788 49.9618 39.0652C49.9618 37.7625 51.5855 36.7435 51.9221 36.7435C52.0737 36.7435 52.1112 36.876 52.1112 37.1216C52.1112 37.8006 51.7901 38.8951 51.7901 39.4808C51.7901 40.0087 52.1302 40.5194 52.4323 40.5194C52.7533 40.5194 53.641 39.3868 53.641 38.2726C53.641 36.2714 51.8841 35.6679 51.3406 35.6679C50.8305 35.6679 49.9048 36.4979 47.7329 36.4979C43.6757 36.4979 42.75 32.4787 42.75 30.7225C42.75 30.647 42.7679 30.6279 42.7869 30.6279C42.8814 30.6279 43.2791 31.1196 44.5628 31.1196C45.2239 31.1196 45.8285 30.949 46.7922 30.949C49.0534 30.949 50.0552 32.5168 51.4535 34.5163C52.2991 35.0443 54.3211 35.8944 54.3211 38.2917C54.3211 40.4059 52.0732 41.5759 51.529 43.8412C52.3936 43.7472 52.9043 42.1984 53.792 42.1984C54.2456 42.1984 54.4531 42.5575 54.4531 43.1247C54.4531 43.9541 53.9804 45.2009 53.0738 45.9744C53.0922 45.8989 53.0922 45.8038 53.0922 45.6908C53.0922 45.1628 52.8853 44.4083 52.2795 44.4083C51.3394 44.4083 51.0374 45.4274 50.5088 46.2759C49.9607 44.3513 49.224 42.614 47.903 41.5569C46.5663 40.4814 44.2607 41.0658 44.2607 39.1032C44.2607 38.5741 44.6014 37.8196 44.6014 37.2155C44.6014 37.008 44.5633 36.819 44.4492 36.668C46.2631 37.3481 45.6204 38.5551 46.7363 39.8012C47.4309 40.5949 49.3572 41.3494 50.4714 44.6147C50.4898 44.5207 50.5088 44.2758 50.5088 44.1057C50.5088 41.312 46.8107 38.5741 46.4896 37.4415C48.6379 37.687 49.0154 38.2161 50.0356 41.0474C50.2448 41.633 50.9256 43.0867 50.9256 43.8031Z"></path>
<path fill="black" d="M40.6011 23.8326C39.2783 23.8326 38.4096 23.1726 38.4096 22.832C38.4096 22.662 38.5226 22.5496 38.6748 22.5496C39.0898 22.5496 39.9964 23.1905 40.2979 23.1905C40.3746 23.1905 40.4305 23.1536 40.4305 23.0401C40.4305 22.7 40.1094 22.134 40.1094 21.8515C40.1094 21.7755 40.1665 21.7195 40.2795 21.7195C40.789 21.7195 41.5446 21.9271 41.9424 21.9271C42.0743 21.9271 42.1118 21.8515 42.1118 21.7755C42.1118 21.3605 40.8835 20.5489 40.8835 20.3034C40.8835 20.0768 42.4098 19.7362 42.4098 19.3788C42.4098 19.0007 40.3348 19.2653 40.3348 18.9062C40.3348 18.6422 40.7319 18.1891 40.7319 17.9816C40.7319 17.8871 40.6558 17.8496 40.5244 17.8496C40.3544 17.8496 39.4477 18.2082 39.0696 18.2082C38.8811 18.2082 38.654 18.1707 38.654 17.9056C38.654 17.4715 39.3907 17 40.5434 17C42.4092 17 43.5246 18.2837 43.5246 20.4353C43.5257 23.1536 41.6213 23.8326 40.6011 23.8326ZM36.9214 20.2469C36.9214 20.0388 36.1836 19.6428 36.1836 19.4163C36.1836 19.3788 36.2205 19.3598 36.2776 19.3598C36.4862 19.3598 36.8453 19.4353 37.1295 19.4353C37.375 19.4353 37.4125 18.3782 37.5981 18.3782C37.7301 18.3782 37.956 19.3788 38.1652 19.3788C38.4102 19.3788 38.8633 19.0952 39.0523 19.0952C39.0898 19.0952 39.1278 19.1137 39.1278 19.1523C39.1278 19.2843 38.6558 19.7932 38.6558 19.9443C38.6558 20.1143 39.714 20.3224 39.714 20.4734C39.714 20.6624 38.6367 20.6434 38.6367 20.8135C38.6367 20.9443 39.0339 21.4734 39.0339 21.6435C39.0339 21.6815 39.0143 21.7005 38.9768 21.7005C38.8252 21.7005 38.2402 21.4354 38.0701 21.4354C37.8621 21.4354 37.526 22.2095 37.356 22.2095C37.2995 22.2095 37.262 22.134 37.262 22.0394L37.224 21.2849C37.224 21.2094 37.1871 21.1334 37.092 21.1334C36.8649 21.1334 36.4303 21.1143 36.2972 21.1143C36.2026 21.1143 36.1652 21.0959 36.1652 21.0578C36.1646 20.9068 36.9214 20.3789 36.9214 20.2469ZM36.3721 23.3409C36.6753 23.3409 36.7318 24.0782 36.7894 24.5116C36.8269 24.7387 36.8649 24.7571 36.9594 24.7571C37.1865 24.7571 37.5445 23.8891 37.7871 23.8891C38.1451 23.8891 39.1094 24.8897 40.7146 24.8897C42.9972 24.8897 45.1506 23.2845 45.1506 20.4544C45.1506 17.7171 43.2225 16.1124 40.563 16.1124C39.2984 16.1124 38.3716 16.7355 37.8805 16.7355C37.5825 16.7545 37.1295 16 36.9018 16C36.8078 16 36.7133 16.1873 36.7133 16.509C36.7133 16.717 36.7133 17.377 36.4862 17.377C36.032 17.377 34.2775 16.0755 34.2775 16.5464C34.2775 16.981 35.4464 18.3027 35.4464 18.6422C35.4464 18.9817 34.2959 19.3033 34.2959 19.5293C34.2959 19.9443 35.5225 20.0198 35.5225 20.5489C35.5225 21.0769 34.2383 21.4925 34.2383 21.889C34.2383 22.2095 35.5225 21.9835 35.5225 22.3795C35.5225 22.7755 34.5789 24.0972 34.5789 24.4736C34.5789 24.5687 34.5974 24.5687 34.6723 24.5687C35.0314 24.5687 36.1075 23.3409 36.3721 23.3409Z"></path>
<path fill="black" d="M27.8224 56.4878C27.8224 56.6579 27.7653 56.8469 27.6143 57.0348C27.4079 56.6579 26.8217 56.4688 26.5572 56.4694C24.613 56.4694 25.3491 59.2822 23.2729 59.2822C22.4048 59.2822 22.3288 59.1686 22.0089 59.1686C21.8763 59.1686 21.8008 59.2257 21.8008 59.3387C21.8008 59.8303 22.4994 61.0373 24.4435 61.0373C26.3877 61.0373 28.257 59.8488 28.257 58.3749C28.257 58.1294 28.2005 57.8671 28.0869 57.6026C28.1624 57.489 28.3521 57.4135 28.5215 57.4135C28.823 57.4135 28.993 57.7547 29.276 57.7547C29.5786 57.7547 29.8052 57.5271 29.8052 57.2256C29.8052 56.9789 29.6732 56.81 29.4472 56.6953C29.5982 56.5829 29.7112 56.3939 29.7112 56.1864C29.7112 55.8642 29.4841 55.5639 29.106 55.5639C28.936 55.5639 28.8236 55.6215 28.6916 55.7506C28.6547 55.4128 28.465 55.0918 28.1059 55.0918C27.8229 55.0918 27.6143 55.2987 27.6143 55.6209C27.6143 55.9206 27.8224 56.1673 27.8224 56.4878Z"></path>
<path fill="black" d="M17.4758 52.9782C18.986 53.3535 19.741 54.1656 19.8915 55.1288C20.0425 56.0533 20.231 56.8095 20.5895 57.1859C21.0616 57.7156 21.9867 58.1848 22.7988 58.1848C23.4784 58.1848 24.0248 57.9606 24.0248 57.3369C24.0248 56.6568 23.1003 55.1282 21.7411 55.1282C21.6091 55.1282 21.4391 55.1478 21.25 55.1478C21.08 55.1478 20.8345 55.1103 20.684 54.9777C20.3826 54.7126 20.2875 53.297 19.7214 52.448C19.0989 51.5038 18.4194 51.2393 17.4948 51.2393C16.8349 51.2393 16.0977 51.5972 16.0977 52.1263C16.0977 52.4491 16.2677 52.6751 17.4758 52.9782ZM22.7423 57.2055C22.1751 57.2055 21.3261 56.6003 21.3261 56.2602C21.3261 55.9766 21.5907 55.8256 21.797 55.8256C22.2697 55.8256 23.1181 56.4124 23.1181 56.9029C23.1187 57.0349 23.0242 57.2055 22.7423 57.2055Z"></path>
<path fill="black" d="M21.0086 42.5016C21.0086 41.2934 23.8784 40.6519 23.8784 39.1602C23.8784 38.9147 23.7839 38.4812 23.6138 38.1602C24.6133 38.7072 25.3499 39.6328 25.3499 40.3873C25.3499 41.69 23.9914 42.294 23.9914 43.1062C23.9914 44.0497 25.4445 44.2008 25.4445 45.3708C25.4445 46.3328 24.0663 47.447 24.0663 48.6926C24.0663 49.6552 24.7465 50.4471 25.7834 50.5797C25.4439 50.6552 25.1424 50.7117 24.8214 50.7117C22.9141 50.7117 20.9515 49.1456 20.9515 47.2764C20.9515 46.3519 21.348 45.5414 21.951 44.9558C22.4807 45.4089 23.0086 45.7103 23.3487 45.7103C23.6502 45.7103 23.7833 45.5599 23.7833 45.3334C23.7839 44.6342 21.0086 43.9933 21.0086 42.5016ZM27.0301 52.0339C26.3828 52.3302 26.1246 52.2795 26.1246 52.9406C26.1246 53.1856 26.0676 53.5049 26.0676 53.6755C26.0676 53.902 26.105 54.0346 26.369 54.0346C27.0492 54.0346 28.1253 52.8835 28.1253 51.9014C28.1253 51.6362 27.9737 51.525 27.8037 51.525C27.6526 51.525 27.4838 51.8259 27.0301 52.0339ZM26.9546 50.6742C26.9546 49.8252 25.1989 49.8062 25.1989 48.5226C25.1989 48.2009 25.4059 47.6545 25.822 47.0683C25.9926 48.0499 26.3875 48.56 27.2382 48.8816C28.9172 49.5036 29.1443 50.4471 29.1443 51.4489C29.1443 53.1481 27.9552 55.2617 24.8975 55.2617C22.4432 55.2617 20.6875 53.0714 20.6875 51.2218C20.6875 50.7117 20.8195 50.1463 21.1405 50.1463C21.4241 50.1463 21.5181 50.3722 21.7446 50.5981C22.5948 51.4489 23.5193 51.6743 24.8594 51.6743C26.0676 51.6748 26.9546 51.1843 26.9546 50.6742Z"></path>
<path fill="black" d="M13.5872 51.0829C13.6333 51.4771 13.3515 51.8328 12.9578 51.8789C12.5636 51.925 12.2062 51.6425 12.1612 51.2489C12.1151 50.854 12.397 50.4972 12.7912 50.4511C13.1855 50.405 13.5417 50.688 13.5872 51.0829ZM10.0597 51.8253C10.1398 52.4697 10.741 52.9584 11.4194 52.8829C11.6644 52.8558 11.8915 52.789 12.0431 52.6945C12.1941 53.2979 12.7007 53.6864 13.3855 53.5965C14.0806 53.506 14.5533 52.9584 14.4783 52.2599C14.4587 52.072 14.4213 51.9573 14.3654 51.8253C14.3654 51.8253 14.457 51.8155 14.5262 51.8028C15.2081 51.6737 15.6674 51.1267 15.6104 50.4661C15.5354 49.7866 14.9256 49.2822 14.291 49.3606C14.0449 49.3906 13.8178 49.4845 13.6662 49.6165C13.4956 49.0511 12.9636 48.5594 12.2373 48.6793C11.5808 48.7882 11.1468 49.345 11.2125 50.0511C11.2234 50.1658 11.25 50.2967 11.307 50.4281C11.307 50.4281 11.1958 50.4448 11.1191 50.4557C10.5681 50.5376 9.97037 51.0921 10.0597 51.8253Z"></path>
</svg>
