<svg xmlns="http://www.w3.org/2000/svg" fill="none" viewBox="0 0 153 100" height="100" width="153">
<path fill="black" d="M93.7406 34.9396V38.621H104.226V42.9734H93.7406V48.0249H110.6V52.3773H89.1458V30.5406H109.724V34.9396H93.7499H93.7406ZM66.2745 48.0342H81.4661V52.3866H61.6798V30.5406H66.2745V48.0342ZM24.6887 47.0649C23.4678 48.9848 21.8554 50.476 19.833 51.5106C17.7266 52.5824 15.4153 53.0297 13.0573 53.0297C9.59028 53.0297 6.35624 52.1164 3.71868 49.805C1.23024 47.6241 0 44.8374 0 41.5382C0 38.2389 1.23024 35.4429 3.71868 33.2434C6.34692 30.9227 9.58096 30 13.0573 30C15.2662 30 17.4191 30.4008 19.4415 31.3234C21.3148 32.1809 22.8992 33.4298 24.1202 35.0887L24.5489 35.6759L20.8488 38.2482L20.4388 37.689C19.6466 36.5986 18.612 35.7877 17.3818 35.2285C16.0211 34.6041 14.5578 34.3524 13.0666 34.3524C10.8205 34.3524 8.74216 34.9303 7.02728 36.4122C5.48016 37.7542 4.69728 39.4318 4.69728 41.4822C4.69728 43.5326 5.48016 45.2102 7.0366 46.5523C8.75148 48.0342 10.8205 48.6214 13.0666 48.6214C14.6231 48.6214 16.1609 48.3418 17.5496 47.6334C18.9476 46.9158 20.0566 45.7974 20.9514 44.5206L21.3521 43.9427L25.0428 46.4964L24.6794 47.0742L24.6887 47.0649ZM47.3736 47.1954H37.4478L34.8102 52.3866H29.8426L40.9614 30.5406H43.832L55.0346 52.3866H50.0204L47.3642 47.1954H47.3736ZM39.5634 43.0853H45.2486L42.4246 37.5119L39.5634 43.0853ZM49.4519 35.4336C48.6131 33.8026 47.7836 32.1716 46.9448 30.5406H51.9404L49.4519 35.4336ZM130.918 41.9762L138.933 30.5406H142.661V52.3866H138.066V39.2548L130.927 49.5906L123.798 39.2548V52.3866H119.203V30.5406H122.931L130.927 41.9762H130.918Z" clip-rule="evenodd" fill-rule="evenodd"></path>
<path fill="black" d="M98.205 70.0018C96.8164 70.0018 95.5116 69.6383 94.4584 68.7063C93.4705 67.8395 92.9672 66.7398 92.9672 65.4256C92.9672 64.1115 93.4612 63.0024 94.4584 62.145C95.5209 61.2223 96.8257 60.8682 98.2144 60.8682C99.603 60.8682 100.926 61.2223 101.989 62.145C102.986 63.0118 103.48 64.1115 103.48 65.435C103.48 66.7584 102.977 67.8582 101.989 68.7249C100.926 69.6569 99.6124 70.0111 98.2237 70.0111M69.9095 64.4657H73.9451C74.2153 64.4657 74.5509 64.4284 74.7652 64.242C74.9516 64.0836 75.0076 63.8692 75.0076 63.6362C75.0076 63.4032 74.9516 63.1888 74.7652 63.0397C74.5416 62.8626 74.2154 62.816 73.9358 62.816H69.9002V64.4564L69.9095 64.4657ZM75.0076 66.0501L75.3617 66.6093L77.3562 69.7501H75.3151L73.563 67.0566L73.0131 66.2085H69.9095V69.7501H68.0828V61.0918H73.9358C74.7 61.0918 75.4736 61.2503 76.07 61.7629C76.6386 62.2475 76.8716 62.8999 76.8716 63.6362C76.8716 64.27 76.6665 64.8385 76.2471 65.3138C75.9116 65.6959 75.4829 65.9103 75.0076 66.0408V66.0501ZM57.7003 70.0111C56.3116 70.0111 55.0068 69.6476 53.9537 68.7156C52.9657 67.8488 52.4625 66.7491 52.4625 65.435C52.4625 64.1208 52.9564 63.0118 53.9537 62.1543C55.0161 61.2316 56.3209 60.8775 57.7096 60.8775C59.0983 60.8775 60.4218 61.2316 61.4842 62.1543C62.4815 63.0211 62.9754 64.1208 62.9754 65.4443C62.9754 66.7677 62.4722 67.8675 61.4842 68.7342C60.4218 69.6662 59.1076 70.0204 57.719 70.0204L57.7003 70.0111ZM57.7003 68.2589C58.6044 68.2589 59.4711 68.0446 60.1701 67.4481C60.7945 66.9168 61.0928 66.2458 61.0928 65.4256C61.0928 64.6055 60.7852 63.9438 60.1608 63.4125C59.4618 62.816 58.6044 62.6017 57.7003 62.6017C56.7963 62.6017 55.9388 62.816 55.2491 63.4125C54.6247 63.9438 54.3265 64.6148 54.3265 65.435C54.3265 66.2551 54.6247 66.9262 55.2491 67.4574C55.9388 68.0539 56.8056 68.2682 57.7003 68.2682V68.2589ZM41.0455 66.2085V69.7501H39.2188V61.0732H45.3979C46.1621 61.0732 46.9357 61.2316 47.5322 61.7349C48.1007 62.2196 48.3244 62.8813 48.3244 63.6176C48.3244 64.3538 48.0821 64.9876 47.5415 65.4816C46.9823 66.0035 46.2833 66.1992 45.5284 66.1992H41.0455V66.2085ZM41.0455 64.4657H45.3979C45.6682 64.4657 45.9944 64.4284 46.2181 64.242C46.4045 64.0836 46.4604 63.8692 46.4604 63.6362C46.4604 63.4032 46.4045 63.1982 46.2274 63.0397C46.0223 62.8626 45.7241 62.8254 45.4631 62.8254H41.0548V64.4657H41.0455ZM84.1412 62.7694H80.7207V61.0825H89.3976V62.7694H85.9772V69.7501H84.1505V62.7694H84.1412ZM98.2237 68.2589C99.1277 68.2589 99.9945 68.0446 100.693 67.4481C101.318 66.9168 101.616 66.2458 101.616 65.4256C101.616 64.6055 101.309 63.9438 100.684 63.4125C99.9852 62.816 99.1277 62.6017 98.2237 62.6017C97.3196 62.6017 96.4622 62.816 95.7725 63.4125C95.1481 63.9438 94.8498 64.6148 94.8498 65.435C94.8498 66.2551 95.1481 66.9262 95.7725 67.4574C96.4622 68.0539 97.329 68.2682 98.2237 68.2682V68.2589Z" clip-rule="evenodd" fill-rule="evenodd"></path>
<path fill="black" d="M133.007 64.5866C133.007 64.2883 132.904 64.0367 132.699 63.8223C132.494 63.608 132.242 63.5055 131.953 63.5055C131.646 63.5055 131.394 63.608 131.189 63.8223C130.984 64.0274 130.882 64.2883 130.882 64.6052C130.882 64.8941 130.993 65.1365 131.208 65.3415C131.422 65.5465 131.692 65.6491 132 65.6491C132.28 65.6491 132.522 65.5465 132.718 65.3415C132.913 65.1365 133.016 64.8848 133.016 64.5959M131.683 68.0443L131.171 67.6901L132.214 66.1617C132.065 66.1803 131.953 66.1896 131.879 66.1896C131.404 66.1896 131.012 66.0312 130.695 65.7143C130.378 65.3974 130.22 64.9967 130.22 64.5307C130.22 64.0647 130.397 63.6825 130.742 63.347C131.087 63.0115 131.497 62.8438 131.963 62.8438C132.429 62.8438 132.83 63.0208 133.174 63.3563C133.519 63.7012 133.696 64.102 133.696 64.5586C133.696 64.9314 133.575 65.2856 133.342 65.6304L131.683 68.0629V68.0443ZM125.784 63.0022H127.937V63.6453H126.287L126.026 64.5679C126.222 64.5493 126.324 64.54 126.361 64.54C126.781 64.54 127.154 64.7077 127.461 65.0433C127.778 65.3788 127.927 65.7702 127.927 66.2269C127.927 66.7115 127.75 67.1216 127.396 67.4571C127.042 67.7927 126.604 67.9604 126.091 67.9604C125.439 67.9604 124.908 67.6808 124.507 67.1123L125.094 66.7395C125.383 67.103 125.718 67.2801 126.119 67.2801C126.445 67.2801 126.716 67.1775 126.93 66.9725C127.144 66.7675 127.247 66.5158 127.247 66.1989C127.247 65.8821 127.135 65.6397 126.911 65.4347C126.688 65.2297 126.417 65.1271 126.091 65.1271C125.895 65.1271 125.728 65.1644 125.588 65.2297C125.448 65.2949 125.29 65.4068 125.113 65.5559L125.774 63.0022H125.784ZM121.785 66.4972C121.785 66.2549 121.683 66.0498 121.496 65.8728C121.301 65.6957 121.068 65.6118 120.797 65.6118C120.527 65.6118 120.313 65.6957 120.126 65.8728C119.949 66.0405 119.856 66.2549 119.856 66.5065C119.856 66.7581 119.949 66.9632 120.136 67.1309C120.322 67.2987 120.564 67.3826 120.844 67.3826C121.105 67.3826 121.329 67.2987 121.515 67.1309C121.692 66.9632 121.785 66.7488 121.785 66.5065V66.4972ZM121.627 64.2324C121.627 64.0087 121.543 63.813 121.385 63.6546C121.226 63.4961 121.03 63.4123 120.807 63.4123C120.583 63.4123 120.387 63.4961 120.229 63.6546C120.07 63.813 119.987 64.0087 119.987 64.2324C119.987 64.4561 120.07 64.6518 120.229 64.8103C120.387 64.9687 120.583 65.0526 120.807 65.0526C121.03 65.0526 121.226 64.9687 121.385 64.8103C121.543 64.6518 121.627 64.4561 121.627 64.2324ZM121.729 65.3229C121.981 65.4627 122.158 65.6397 122.279 65.8541C122.4 66.0685 122.456 66.2921 122.456 66.5158C122.456 66.9073 122.298 67.2521 121.972 67.5317C121.655 67.8113 121.263 67.9511 120.807 67.9511C120.35 67.9511 119.949 67.8113 119.632 67.5317C119.316 67.2521 119.157 66.9073 119.157 66.5065C119.157 66.0219 119.39 65.6304 119.856 65.3135C119.66 65.1365 119.511 64.9687 119.427 64.8009C119.334 64.6332 119.297 64.4375 119.297 64.2138C119.297 63.841 119.446 63.5241 119.744 63.2538C120.042 62.9835 120.397 62.8438 120.807 62.8438C121.217 62.8438 121.562 62.9835 121.869 63.2538C122.167 63.5241 122.317 63.841 122.317 64.2045C122.317 64.6332 122.121 65.006 121.739 65.3229H121.729ZM115.103 63.0208H116.352V67.7927H115.709V63.6546H114.889L115.103 63.0115V63.0208ZM25.3886 63.5428V65.2017H26.3765C26.6188 65.2017 26.8145 65.1365 26.9636 65.006C27.1128 64.8755 27.1966 64.6611 27.1966 64.3536C27.1966 64.1765 27.1594 64.0181 27.0848 63.8876C27.0102 63.7478 26.8984 63.6546 26.7586 63.608C26.6188 63.5614 26.479 63.5334 26.3578 63.5334H25.3792L25.3886 63.5428ZM24.8107 63.0301H26.4883C26.8798 63.0301 27.1966 63.1513 27.439 63.4029C27.6813 63.6546 27.8024 63.9715 27.8024 64.3815C27.8024 64.7916 27.6813 65.1178 27.4296 65.3601C27.178 65.6025 26.8518 65.7236 26.4417 65.7236H24.8107V63.0301ZM19.5636 63.0301H22.5087V63.6825H21.3623V67.8206H20.7099V63.6825H19.5729V63.0301H19.5636ZM17.6157 63.5614L17.0844 63.9901C16.9446 63.841 16.8142 63.7385 16.7023 63.6639C16.5905 63.5893 16.4227 63.5614 16.2084 63.5614C15.9754 63.5614 15.7796 63.6173 15.6398 63.7198C15.4907 63.8223 15.4162 63.9621 15.4162 64.1299C15.4162 64.2697 15.4814 64.4002 15.6119 64.512C15.7424 64.6239 15.9567 64.745 16.2643 64.8755C16.5718 65.006 16.8142 65.1271 16.9819 65.2483C17.1497 65.3601 17.2988 65.4906 17.4013 65.6211C17.5132 65.7609 17.597 65.9007 17.6436 66.0591C17.6996 66.2083 17.7275 66.376 17.7275 66.5438C17.7275 66.9445 17.5784 67.2801 17.2895 67.5597C17.0006 67.8393 16.6464 67.9791 16.2363 67.9791C15.8262 67.9791 15.4814 67.8672 15.1738 67.6529C14.8663 67.4385 14.6333 67.103 14.4655 66.6649L15.1179 66.4785C15.3509 67.0191 15.7144 67.2894 16.2084 67.2894C16.4414 67.2894 16.6464 67.2148 16.7955 67.075C16.954 66.9352 17.0285 66.7581 17.0285 66.5345C17.0285 66.404 16.9912 66.2735 16.9074 66.143C16.8235 66.0125 16.721 65.9007 16.5998 65.8168C16.4786 65.7329 16.2829 65.6304 16.0126 65.5186C15.7424 65.4067 15.5373 65.3042 15.3975 65.211C15.2577 65.1178 15.1272 65.0153 15.0247 64.8848C14.9222 64.7637 14.8383 64.6332 14.7917 64.512C14.7451 64.3909 14.7172 64.2511 14.7172 64.1113C14.7172 63.7664 14.857 63.4775 15.1272 63.2352C15.4068 62.9929 15.7424 62.8717 16.1338 62.8717C16.3948 62.8717 16.6557 62.9276 16.926 63.0395C17.1963 63.1513 17.42 63.3191 17.597 63.5521L17.6157 63.5614ZM27.8024 66.2455H24.82V66.7675H27.8024V66.2455ZM9.94531 63.0395H12.6015V63.6919H10.5977V64.8755H12.6015V65.5279H10.5977V67.1682H12.6015V67.8206H9.94531V63.0301V63.0395Z"></path>
</svg>
