<svg xmlns="http://www.w3.org/2000/svg" fill="none" viewBox="0 0 220 100" height="100" width="220">
<g clip-path="url(#clip0_10390_17709)">
<path fill="black" d="M-0.00195312 44.6787L19.0362 42.6445L38.0744 44.6787V48.4055H-0.00195312V44.6787Z"></path>
<path fill-opacity="0.2" fill="black" d="M-0.00195312 44.6787L19.0362 42.6445L38.0744 44.6787V48.4055H-0.00195312V44.6787Z"></path>
<path fill="black" d="M-0.00195312 52.5952H38.0744V56.3221L19.0362 58.3562L-0.00195312 56.3221V52.5952Z"></path>
<path fill-opacity="0.2" fill="black" d="M-0.00195312 52.5952H38.0744V56.3221L19.0362 58.3562L-0.00195312 56.3221V52.5952Z"></path>
<path fill="black" d="M-0.00195312 60.5171L19.0362 62.8878L38.0744 60.5171V64.5902L19.0362 70.0098L-0.00195312 64.5902V60.5171Z"></path>
<path fill-opacity="0.2" fill="black" d="M-0.00195312 60.5171L19.0362 62.8878L38.0744 60.5171V64.5902L19.0362 70.0098L-0.00195312 64.5902V60.5171Z"></path>
<path fill="black" d="M-0.00195312 36.4195L19.0362 31L38.0744 36.4195V40.4829L19.0362 38.1122L-0.00195312 40.4829V36.4195Z"></path>
<path fill-opacity="0.2" fill="black" d="M-0.00195312 36.4195L19.0362 31L38.0744 36.4195V40.4829L19.0362 38.1122L-0.00195312 40.4829V36.4195Z"></path>
<path fill="black" d="M206.417 43.4245C206.41 42.8272 206.513 42.2336 206.721 41.6733C206.906 41.1702 207.2 40.7132 207.58 40.3342C207.961 39.9552 208.419 39.6631 208.924 39.4782C210.055 39.075 211.29 39.075 212.421 39.4782C212.924 39.6634 213.382 39.9546 213.762 40.3318C214.137 40.715 214.427 41.1719 214.614 41.6733C215.019 42.8059 215.019 44.0431 214.614 45.1757C214.431 45.6796 214.14 46.1379 213.761 46.5186C213.382 46.8993 212.925 47.1934 212.421 47.3806C211.292 47.7903 210.053 47.7903 208.924 47.3806C208.427 47.1949 207.974 46.9093 207.593 46.5416C207.213 46.1602 206.919 45.703 206.731 45.2001C206.516 44.6328 206.41 44.0306 206.417 43.4245ZM213.919 43.4245C213.924 42.9687 213.847 42.5158 213.689 42.0879C213.545 41.7066 213.324 41.3594 213.038 41.0684C212.749 40.778 212.402 40.5519 212.019 40.405C211.597 40.2443 211.149 40.1648 210.697 40.1708C210.241 40.1649 209.787 40.2443 209.36 40.405C208.972 40.5492 208.619 40.7755 208.327 41.0684C208.038 41.3592 207.813 41.7063 207.666 42.0879C207.351 42.9497 207.351 43.8944 207.666 44.7562C207.813 45.1422 208.038 45.4942 208.327 45.7903C208.619 46.0832 208.972 46.3095 209.36 46.4537C209.787 46.6144 210.241 46.6939 210.697 46.6879C211.149 46.6939 211.597 46.6144 212.019 46.4537C212.402 46.3069 212.749 46.0808 213.038 45.7903C213.323 45.4936 213.545 45.1417 213.689 44.7562C213.846 44.3299 213.924 43.8786 213.919 43.4245ZM209.022 45.7026V41.1172H210.942C211.364 41.0967 211.777 41.2381 212.097 41.5123C212.241 41.6458 212.354 41.8087 212.428 41.9897C212.502 42.1707 212.537 42.3656 212.528 42.5611C212.538 42.8557 212.467 43.1475 212.323 43.405C212.18 43.6301 211.967 43.8017 211.715 43.8928L212.695 45.6928H211.76L210.839 44.0099H209.86V45.6928L209.022 45.7026ZM209.889 41.9513V43.1855H210.922C211.412 43.1855 211.671 42.9757 211.671 42.5611C211.676 42.4762 211.661 42.3914 211.627 42.3134C211.593 42.2354 211.541 42.1666 211.476 42.1123C211.315 41.9966 211.12 41.9397 210.922 41.9513H209.889Z"></path>
<path fill-opacity="0.2" fill="black" d="M206.417 43.4245C206.41 42.8272 206.513 42.2336 206.721 41.6733C206.906 41.1702 207.2 40.7132 207.58 40.3342C207.961 39.9552 208.419 39.6631 208.924 39.4782C210.055 39.075 211.29 39.075 212.421 39.4782C212.924 39.6634 213.382 39.9546 213.762 40.3318C214.137 40.715 214.427 41.1719 214.614 41.6733C215.019 42.8059 215.019 44.0431 214.614 45.1757C214.431 45.6796 214.14 46.1379 213.761 46.5186C213.382 46.8993 212.925 47.1934 212.421 47.3806C211.292 47.7903 210.053 47.7903 208.924 47.3806C208.427 47.1949 207.974 46.9093 207.593 46.5416C207.213 46.1602 206.919 45.703 206.731 45.2001C206.516 44.6328 206.41 44.0306 206.417 43.4245ZM213.919 43.4245C213.924 42.9687 213.847 42.5158 213.689 42.0879C213.545 41.7066 213.324 41.3594 213.038 41.0684C212.749 40.778 212.402 40.5519 212.019 40.405C211.597 40.2443 211.149 40.1648 210.697 40.1708C210.241 40.1649 209.787 40.2443 209.36 40.405C208.972 40.5492 208.619 40.7755 208.327 41.0684C208.038 41.3592 207.813 41.7063 207.666 42.0879C207.351 42.9497 207.351 43.8944 207.666 44.7562C207.813 45.1422 208.038 45.4942 208.327 45.7903C208.619 46.0832 208.972 46.3095 209.36 46.4537C209.787 46.6144 210.241 46.6939 210.697 46.6879C211.149 46.6939 211.597 46.6144 212.019 46.4537C212.402 46.3069 212.749 46.0808 213.038 45.7903C213.323 45.4936 213.545 45.1417 213.689 44.7562C213.846 44.3299 213.924 43.8786 213.919 43.4245ZM209.022 45.7026V41.1172H210.942C211.364 41.0967 211.777 41.2381 212.097 41.5123C212.241 41.6458 212.354 41.8087 212.428 41.9897C212.502 42.1707 212.537 42.3656 212.528 42.5611C212.538 42.8557 212.467 43.1475 212.323 43.405C212.18 43.6301 211.967 43.8017 211.715 43.8928L212.695 45.6928H211.76L210.839 44.0099H209.86V45.6928L209.022 45.7026ZM209.889 41.9513V43.1855H210.922C211.412 43.1855 211.671 42.9757 211.671 42.5611C211.676 42.4762 211.661 42.3914 211.627 42.3134C211.593 42.2354 211.541 42.1666 211.476 42.1123C211.315 41.9966 211.12 41.9397 210.922 41.9513H209.889Z"></path>
<path fill="black" d="M67.0843 54.3464C66.9681 55.412 66.6349 56.4428 66.105 57.3756C65.5956 58.282 64.9136 59.0807 64.0973 59.7269C63.2332 60.4042 62.2549 60.9229 61.2083 61.2586C60.0543 61.6319 58.8471 61.8164 57.6337 61.8049C56.1664 61.8266 54.71 61.5494 53.3541 60.9903C52.1028 60.4693 50.98 59.6837 50.0635 58.6879C49.1215 57.6472 48.4003 56.4277 47.9432 55.1025C46.9499 52.0923 46.9499 48.8444 47.9432 45.8342C48.4022 44.5132 49.1252 43.2984 50.0684 42.2634C50.9924 41.2686 52.1217 40.4848 53.3786 39.9659C54.7372 39.4101 56.1945 39.133 57.6631 39.1512C58.8657 39.1394 60.0625 39.3189 61.2083 39.6829C62.2482 40.0124 63.2213 40.5228 64.0826 41.1903C64.8987 41.8297 65.5837 42.6197 66.1001 43.5171C66.6257 44.4413 66.9588 45.4616 67.0794 46.5171H63.2747C63.0299 45.3122 62.344 44.2412 61.3503 43.5122C60.841 43.1418 60.2734 42.8582 59.6707 42.6732C59.0075 42.4714 58.3174 42.3711 57.6239 42.3756C56.6756 42.361 55.7358 42.5559 54.8721 42.9464C54.0627 43.3242 53.3495 43.8795 52.7861 44.5707C52.1845 45.3218 51.7338 46.1814 51.459 47.1025C51.1267 48.1751 50.9616 49.2921 50.9693 50.4146C50.9629 51.5451 51.128 52.67 51.459 53.7513C51.7402 54.6851 52.1936 55.5585 52.7959 56.3269C53.3564 57.031 54.0694 57.5997 54.8818 57.9903C55.738 58.3891 56.6739 58.5893 57.619 58.5757C58.3167 58.5793 59.0107 58.474 59.6756 58.2635C60.2852 58.066 60.8576 57.7693 61.3698 57.3854C61.8581 57.0184 62.2746 56.5654 62.5989 56.0488C62.9267 55.5275 63.1496 54.9476 63.2551 54.3415L67.0843 54.3464Z"></path>
<path fill-opacity="0.2" fill="black" d="M67.0843 54.3464C66.9681 55.412 66.6349 56.4428 66.105 57.3756C65.5956 58.282 64.9136 59.0807 64.0973 59.7269C63.2332 60.4042 62.2549 60.9229 61.2083 61.2586C60.0543 61.6319 58.8471 61.8164 57.6337 61.8049C56.1664 61.8266 54.71 61.5494 53.3541 60.9903C52.1028 60.4693 50.98 59.6837 50.0635 58.6879C49.1215 57.6472 48.4003 56.4277 47.9432 55.1025C46.9499 52.0923 46.9499 48.8444 47.9432 45.8342C48.4022 44.5132 49.1252 43.2984 50.0684 42.2634C50.9924 41.2686 52.1217 40.4848 53.3786 39.9659C54.7372 39.4101 56.1945 39.133 57.6631 39.1512C58.8657 39.1394 60.0625 39.3189 61.2083 39.6829C62.2482 40.0124 63.2213 40.5228 64.0826 41.1903C64.8987 41.8297 65.5837 42.6197 66.1001 43.5171C66.6257 44.4413 66.9588 45.4616 67.0794 46.5171H63.2747C63.0299 45.3122 62.344 44.2412 61.3503 43.5122C60.841 43.1418 60.2734 42.8582 59.6707 42.6732C59.0075 42.4714 58.3174 42.3711 57.6239 42.3756C56.6756 42.361 55.7358 42.5559 54.8721 42.9464C54.0627 43.3242 53.3495 43.8795 52.7861 44.5707C52.1845 45.3218 51.7338 46.1814 51.459 47.1025C51.1267 48.1751 50.9616 49.2921 50.9693 50.4146C50.9629 51.5451 51.128 52.67 51.459 53.7513C51.7402 54.6851 52.1936 55.5585 52.7959 56.3269C53.3564 57.031 54.0694 57.5997 54.8818 57.9903C55.738 58.3891 56.6739 58.5893 57.619 58.5757C58.3167 58.5793 59.0107 58.474 59.6756 58.2635C60.2852 58.066 60.8576 57.7693 61.3698 57.3854C61.8581 57.0184 62.2746 56.5654 62.5989 56.0488C62.9267 55.5275 63.1496 54.9476 63.2551 54.3415L67.0843 54.3464Z"></path>
<path fill="black" d="M68.9453 39.541H72.4905V61.4581H68.9453V39.541Z"></path>
<path fill-opacity="0.2" fill="black" d="M68.9453 39.541H72.4905V61.4581H68.9453V39.541Z"></path>
<path fill="black" d="M89.4793 54.5175H77.8644C77.857 55.1255 77.9581 55.73 78.1631 56.3028C78.3472 56.806 78.6358 57.2648 79.0102 57.6492C79.3877 58.0266 79.8441 58.3164 80.3469 58.498C80.9082 58.7029 81.5023 58.8037 82.1 58.7955C82.9146 58.8242 83.7242 58.6568 84.4602 58.3077C84.7526 58.1642 85.0101 57.959 85.2148 57.7062C85.4194 57.4535 85.5663 57.1594 85.6452 56.8443H89.2344C89.0675 57.5647 88.7578 58.2446 88.3236 58.8443C87.8909 59.4493 87.3537 59.9729 86.7371 60.3906C86.0863 60.8187 85.3749 61.1475 84.6266 61.3663C83.8331 61.6074 83.0079 61.7291 82.1783 61.7272C81.0736 61.742 79.9765 61.5449 78.9466 61.1467C78.0201 60.7782 77.1848 60.214 76.4982 59.4931C75.7994 58.7497 75.264 57.8691 74.9264 56.9077C74.1886 54.7207 74.1886 52.3533 74.9264 50.1663C75.2635 49.2065 75.7933 48.3251 76.4835 47.576C77.1691 46.8539 78.0047 46.2895 78.9319 45.9223C79.9435 45.5262 81.023 45.3307 82.1098 45.3468C83.1731 45.3297 84.2295 45.5202 85.2192 45.9077C86.1149 46.265 86.9194 46.8166 87.5744 47.5223C88.239 48.2657 88.7395 49.1399 89.0434 50.0882C89.3978 51.191 89.5634 52.3453 89.5331 53.5028L89.4793 54.5175ZM85.8704 51.9467C85.8578 51.4196 85.75 50.8992 85.5521 50.4102C85.371 49.9725 85.1028 49.5759 84.7637 49.2443C84.4244 48.9207 84.0207 48.6714 83.5788 48.5126C83.0883 48.3405 82.5711 48.2563 82.0511 48.2638C81.4949 48.2584 80.9417 48.3475 80.4156 48.5272C79.9405 48.694 79.5004 48.9471 79.1179 49.2735C78.7501 49.5965 78.4534 49.9918 78.2464 50.4345C78.0294 50.911 77.9048 51.4241 77.8791 51.9467H85.8704Z"></path>
<path fill-opacity="0.2" fill="black" d="M89.4793 54.5175H77.8644C77.857 55.1255 77.9581 55.73 78.1631 56.3028C78.3472 56.806 78.6358 57.2648 79.0102 57.6492C79.3877 58.0266 79.8441 58.3164 80.3469 58.498C80.9082 58.7029 81.5023 58.8037 82.1 58.7955C82.9146 58.8242 83.7242 58.6568 84.4602 58.3077C84.7526 58.1642 85.0101 57.959 85.2148 57.7062C85.4194 57.4535 85.5663 57.1594 85.6452 56.8443H89.2344C89.0675 57.5647 88.7578 58.2446 88.3236 58.8443C87.8909 59.4493 87.3537 59.9729 86.7371 60.3906C86.0863 60.8187 85.3749 61.1475 84.6266 61.3663C83.8331 61.6074 83.0079 61.7291 82.1783 61.7272C81.0736 61.742 79.9765 61.5449 78.9466 61.1467C78.0201 60.7782 77.1848 60.214 76.4982 59.4931C75.7994 58.7497 75.264 57.8691 74.9264 56.9077C74.1886 54.7207 74.1886 52.3533 74.9264 50.1663C75.2635 49.2065 75.7933 48.3251 76.4835 47.576C77.1691 46.8539 78.0047 46.2895 78.9319 45.9223C79.9435 45.5262 81.023 45.3307 82.1098 45.3468C83.1731 45.3297 84.2295 45.5202 85.2192 45.9077C86.1149 46.265 86.9194 46.8166 87.5744 47.5223C88.239 48.2657 88.7395 49.1399 89.0434 50.0882C89.3978 51.191 89.5634 52.3453 89.5331 53.5028L89.4793 54.5175ZM85.8704 51.9467C85.8578 51.4196 85.75 50.8992 85.5521 50.4102C85.371 49.9725 85.1028 49.5759 84.7637 49.2443C84.4244 48.9207 84.0207 48.6714 83.5788 48.5126C83.0883 48.3405 82.5711 48.2563 82.0511 48.2638C81.4949 48.2584 80.9417 48.3475 80.4156 48.5272C79.9405 48.694 79.5004 48.9471 79.1179 49.2735C78.7501 49.5965 78.4534 49.9918 78.2464 50.4345C78.0294 50.911 77.9048 51.4241 77.8791 51.9467H85.8704Z"></path>
<path fill="black" d="M91.0807 50.6244C91.0692 49.8771 91.2371 49.1379 91.5703 48.4683C91.9079 47.8189 92.3862 47.2524 92.9707 46.8098C93.6256 46.3203 94.3661 45.9563 95.1546 45.7366C96.0795 45.4735 97.0378 45.3453 97.9996 45.3561C98.9196 45.3452 99.8359 45.4735 100.717 45.7366C101.474 45.9605 102.182 46.3246 102.803 46.8098C103.365 47.2552 103.821 47.8181 104.14 48.4586C104.464 49.1125 104.631 49.832 104.63 50.561V61.4586H101.334V59.5073C100.773 60.2213 100.047 60.7902 99.2189 61.1659C98.3137 61.5554 97.3353 61.7467 96.3495 61.7269C95.5624 61.7377 94.7788 61.6224 94.0285 61.3854C93.3792 61.1789 92.777 60.8474 92.2558 60.4098C91.7697 59.9909 91.3832 59.4693 91.1247 58.883C90.8568 58.2674 90.7217 57.6027 90.7281 56.9318C90.7117 56.3445 90.8237 55.7607 91.0562 55.2208C91.2887 54.6809 91.6362 54.1978 92.0747 53.8049C92.9692 52.9919 94.3744 52.4358 96.2907 52.1366L101.134 51.4098V50.6781C101.138 50.339 101.059 50.004 100.903 49.7025C100.747 49.4044 100.526 49.1445 100.257 48.9415C99.9518 48.7158 99.606 48.5503 99.2385 48.4537C98.8059 48.3376 98.3594 48.2818 97.9115 48.2878C97.4421 48.2826 96.9741 48.3417 96.5208 48.4634C96.1389 48.5663 95.7766 48.7311 95.4485 48.9512C95.1689 49.1453 94.9378 49.4006 94.7728 49.6976C94.6087 49.9964 94.526 50.3327 94.5328 50.6732L91.0807 50.6244ZM101.134 53.9415L97.0546 54.5513C96.3153 54.6214 95.6093 54.8913 95.0127 55.3318C94.6893 55.6016 94.4654 55.9712 94.3767 56.3821C94.288 56.793 94.3396 57.2216 94.523 57.6001C94.6602 57.8635 94.8541 58.0934 95.091 58.2732C95.3583 58.4702 95.6583 58.6188 95.9773 58.7122C96.3488 58.8237 96.7351 58.878 97.1231 58.8732C97.6625 58.879 98.199 58.7933 98.7096 58.6196C99.1752 58.4674 99.6062 58.2254 99.9779 57.9074C100.335 57.597 100.619 57.2123 100.81 56.7805C101.014 56.3196 101.115 55.8206 101.109 55.3171L101.134 53.9415Z"></path>
<path fill-opacity="0.2" fill="black" d="M91.0807 50.6244C91.0692 49.8771 91.2371 49.1379 91.5703 48.4683C91.9079 47.8189 92.3862 47.2524 92.9707 46.8098C93.6256 46.3203 94.3661 45.9563 95.1546 45.7366C96.0795 45.4735 97.0378 45.3453 97.9996 45.3561C98.9196 45.3452 99.8359 45.4735 100.717 45.7366C101.474 45.9605 102.182 46.3246 102.803 46.8098C103.365 47.2552 103.821 47.8181 104.14 48.4586C104.464 49.1125 104.631 49.832 104.63 50.561V61.4586H101.334V59.5073C100.773 60.2213 100.047 60.7902 99.2189 61.1659C98.3137 61.5554 97.3353 61.7467 96.3495 61.7269C95.5624 61.7377 94.7788 61.6224 94.0285 61.3854C93.3792 61.1789 92.777 60.8474 92.2558 60.4098C91.7697 59.9909 91.3832 59.4693 91.1247 58.883C90.8568 58.2674 90.7217 57.6027 90.7281 56.9318C90.7117 56.3445 90.8237 55.7607 91.0562 55.2208C91.2887 54.6809 91.6362 54.1978 92.0747 53.8049C92.9692 52.9919 94.3744 52.4358 96.2907 52.1366L101.134 51.4098V50.6781C101.138 50.339 101.059 50.004 100.903 49.7025C100.747 49.4044 100.526 49.1445 100.257 48.9415C99.9518 48.7158 99.606 48.5503 99.2385 48.4537C98.8059 48.3376 98.3594 48.2818 97.9115 48.2878C97.4421 48.2826 96.9741 48.3417 96.5208 48.4634C96.1389 48.5663 95.7766 48.7311 95.4485 48.9512C95.1689 49.1453 94.9378 49.4006 94.7728 49.6976C94.6087 49.9964 94.526 50.3327 94.5328 50.6732L91.0807 50.6244ZM101.134 53.9415L97.0546 54.5513C96.3153 54.6214 95.6093 54.8913 95.0127 55.3318C94.6893 55.6016 94.4654 55.9712 94.3767 56.3821C94.288 56.793 94.3396 57.2216 94.523 57.6001C94.6602 57.8635 94.8541 58.0934 95.091 58.2732C95.3583 58.4702 95.6583 58.6188 95.9773 58.7122C96.3488 58.8237 96.7351 58.878 97.1231 58.8732C97.6625 58.879 98.199 58.7933 98.7096 58.6196C99.1752 58.4674 99.6062 58.2254 99.9779 57.9074C100.335 57.597 100.619 57.2123 100.81 56.7805C101.014 56.3196 101.115 55.8206 101.109 55.3171L101.134 53.9415Z"></path>
<path fill="black" d="M114.732 48.5222C114.188 48.5166 113.647 48.6091 113.136 48.7953C112.672 48.9631 112.249 49.2268 111.894 49.5689C111.54 49.9111 111.262 50.324 111.079 50.7806C110.882 51.2825 110.784 51.8175 110.79 52.3563V61.4587H107.304V45.6295H110.79V47.7173C110.959 47.3862 111.18 47.0846 111.446 46.8246C111.715 46.5621 112.022 46.3417 112.357 46.1709C112.708 45.9876 113.082 45.8515 113.469 45.7661C113.883 45.6733 114.307 45.6275 114.732 45.6295H115.971V48.5222H114.732Z"></path>
<path fill-opacity="0.2" fill="black" d="M114.732 48.5222C114.188 48.5166 113.647 48.6091 113.136 48.7953C112.672 48.9631 112.249 49.2268 111.894 49.5689C111.54 49.9111 111.262 50.324 111.079 50.7806C110.882 51.2825 110.784 51.8175 110.79 52.3563V61.4587H107.304V45.6295H110.79V47.7173C110.959 47.3862 111.18 47.0846 111.446 46.8246C111.715 46.5621 112.022 46.3417 112.357 46.1709C112.708 45.9876 113.082 45.8515 113.469 45.7661C113.883 45.6733 114.307 45.6275 114.732 45.6295H115.971V48.5222H114.732Z"></path>
<path fill="black" d="M136.167 45.7661C136.173 45.2867 136.068 44.8123 135.858 44.3806C135.65 43.9583 135.344 43.5908 134.967 43.3075C134.538 42.9897 134.053 42.7547 133.537 42.6148C132.369 42.3107 131.145 42.2907 129.968 42.5563C129.52 42.6587 129.094 42.8387 128.709 43.088C128.378 43.3074 128.102 43.6016 127.906 43.9466C127.715 44.3001 127.617 44.6962 127.622 45.0978C127.61 45.3715 127.653 45.6447 127.748 45.9018C127.843 46.1589 127.988 46.3946 128.175 46.5953C128.593 47.0082 129.093 47.3275 129.644 47.5319C130.313 47.7944 131.003 48 131.706 48.1465C132.475 48.3173 133.263 48.4978 134.076 48.6978C134.877 48.8916 135.666 49.1293 136.441 49.4099C137.184 49.6781 137.88 50.0581 138.507 50.5367C139.122 51.0177 139.624 51.6272 139.976 52.3221C140.369 53.1607 140.557 54.0801 140.525 55.0051C140.539 55.9703 140.348 56.9276 139.967 57.8148C139.598 58.6483 139.038 59.3837 138.331 59.9612C137.545 60.5928 136.639 61.0606 135.667 61.3368C134.476 61.6807 133.24 61.8451 132 61.8246C130.753 61.8397 129.511 61.6636 128.317 61.3026C127.291 60.9919 126.337 60.4794 125.512 59.7953C124.748 59.1482 124.14 58.3379 123.734 57.4246C123.304 56.4524 123.09 55.399 123.107 54.3368H126.897C126.887 54.9401 127.005 55.5388 127.245 56.0928C127.478 56.6177 127.832 57.0805 128.278 57.4441C128.768 57.8392 129.333 58.1328 129.938 58.3075C130.661 58.5224 131.412 58.626 132.166 58.6148C132.853 58.627 133.537 58.5399 134.198 58.3563C134.712 58.2107 135.193 57.9708 135.618 57.649C135.98 57.3703 136.269 57.0088 136.461 56.5953C136.646 56.1881 136.74 55.745 136.735 55.2977C136.764 54.6889 136.569 54.0905 136.186 53.6148C135.783 53.1557 135.281 52.7937 134.717 52.5563C134.055 52.264 133.364 52.04 132.656 51.888L130.291 51.3514C129.488 51.1725 128.701 50.9547 127.931 50.6978C127.196 50.4607 126.501 50.1154 125.869 49.6734C125.259 49.2413 124.756 48.6755 124.4 48.0197C124.008 47.2365 123.819 46.3676 123.852 45.4929C123.833 44.5692 124.026 43.6535 124.415 42.8148C124.789 42.0394 125.334 41.3589 126.011 40.8246C126.749 40.2585 127.591 39.8409 128.489 39.5953C130.65 39.0183 132.928 39.0368 135.08 39.649C136.028 39.9247 136.915 40.3765 137.695 40.9807C138.406 41.5359 138.979 42.247 139.369 43.0587C139.769 43.905 139.97 44.8309 139.957 45.7661H136.167Z"></path>
<path fill-opacity="0.2" fill="black" d="M136.167 45.7661C136.173 45.2867 136.068 44.8123 135.858 44.3806C135.65 43.9583 135.344 43.5908 134.967 43.3075C134.538 42.9897 134.053 42.7547 133.537 42.6148C132.369 42.3107 131.145 42.2907 129.968 42.5563C129.52 42.6587 129.094 42.8387 128.709 43.088C128.378 43.3074 128.102 43.6016 127.906 43.9466C127.715 44.3001 127.617 44.6962 127.622 45.0978C127.61 45.3715 127.653 45.6447 127.748 45.9018C127.843 46.1589 127.988 46.3946 128.175 46.5953C128.593 47.0082 129.093 47.3275 129.644 47.5319C130.313 47.7944 131.003 48 131.706 48.1465C132.475 48.3173 133.263 48.4978 134.076 48.6978C134.877 48.8916 135.666 49.1293 136.441 49.4099C137.184 49.6781 137.88 50.0581 138.507 50.5367C139.122 51.0177 139.624 51.6272 139.976 52.3221C140.369 53.1607 140.557 54.0801 140.525 55.0051C140.539 55.9703 140.348 56.9276 139.967 57.8148C139.598 58.6483 139.038 59.3837 138.331 59.9612C137.545 60.5928 136.639 61.0606 135.667 61.3368C134.476 61.6807 133.24 61.8451 132 61.8246C130.753 61.8397 129.511 61.6636 128.317 61.3026C127.291 60.9919 126.337 60.4794 125.512 59.7953C124.748 59.1482 124.14 58.3379 123.734 57.4246C123.304 56.4524 123.09 55.399 123.107 54.3368H126.897C126.887 54.9401 127.005 55.5388 127.245 56.0928C127.478 56.6177 127.832 57.0805 128.278 57.4441C128.768 57.8392 129.333 58.1328 129.938 58.3075C130.661 58.5224 131.412 58.626 132.166 58.6148C132.853 58.627 133.537 58.5399 134.198 58.3563C134.712 58.2107 135.193 57.9708 135.618 57.649C135.98 57.3703 136.269 57.0088 136.461 56.5953C136.646 56.1881 136.74 55.745 136.735 55.2977C136.764 54.6889 136.569 54.0905 136.186 53.6148C135.783 53.1557 135.281 52.7937 134.717 52.5563C134.055 52.264 133.364 52.04 132.656 51.888L130.291 51.3514C129.488 51.1725 128.701 50.9547 127.931 50.6978C127.196 50.4607 126.501 50.1154 125.869 49.6734C125.259 49.2413 124.756 48.6755 124.4 48.0197C124.008 47.2365 123.819 46.3676 123.852 45.4929C123.833 44.5692 124.026 43.6535 124.415 42.8148C124.789 42.0394 125.334 41.3589 126.011 40.8246C126.749 40.2585 127.591 39.8409 128.489 39.5953C130.65 39.0183 132.928 39.0368 135.08 39.649C136.028 39.9247 136.915 40.3765 137.695 40.9807C138.406 41.5359 138.979 42.247 139.369 43.0587C139.769 43.905 139.97 44.8309 139.957 45.7661H136.167Z"></path>
<path fill="black" d="M159.807 48.5222C159.263 48.5171 158.722 48.6096 158.211 48.7953C157.748 48.9679 157.325 49.2317 156.967 49.5709C156.616 49.9136 156.341 50.3256 156.159 50.7807C155.958 51.2815 155.858 51.817 155.865 52.3563V61.4587H152.384V45.6295H155.865V47.7173C156.035 47.3871 156.257 47.0857 156.521 46.8246C156.79 46.5621 157.097 46.3418 157.432 46.1709C157.785 45.9883 158.161 45.8523 158.549 45.7661C158.962 45.673 159.384 45.6272 159.807 45.6295H161.07V48.5222H159.807Z"></path>
<path fill-opacity="0.2" fill="black" d="M159.807 48.5222C159.263 48.5171 158.722 48.6096 158.211 48.7953C157.748 48.9679 157.325 49.2317 156.967 49.5709C156.616 49.9136 156.341 50.3256 156.159 50.7807C155.958 51.2815 155.858 51.817 155.865 52.3563V61.4587H152.384V45.6295H155.865V47.7173C156.035 47.3871 156.257 47.0857 156.521 46.8246C156.79 46.5621 157.097 46.3418 157.432 46.1709C157.785 45.9883 158.161 45.8523 158.549 45.7661C158.962 45.673 159.384 45.6272 159.807 45.6295H161.07V48.5222H159.807Z"></path>
<path fill="black" d="M176.619 54.5174H164.994C164.984 55.1256 165.086 55.7306 165.293 56.3028C165.475 56.8068 165.764 57.2659 166.14 57.6491C166.518 58.0265 166.974 58.3163 167.477 58.4979C168.036 58.7032 168.629 58.8041 169.225 58.7955C170.039 58.8247 170.849 58.6573 171.585 58.3076C171.878 58.165 172.136 57.96 172.341 57.7071C172.546 57.4543 172.692 57.1597 172.77 56.8442H176.359C176.192 57.5636 175.884 58.2432 175.453 58.8442C175.018 59.4483 174.479 59.9716 173.862 60.3906C173.213 60.8186 172.503 61.1474 171.756 61.3662C170.963 61.6065 170.138 61.7282 169.308 61.7272C168.203 61.7428 167.106 61.5456 166.076 61.1466C165.149 60.7795 164.314 60.2152 163.628 59.493C162.926 58.7514 162.388 57.8704 162.051 56.9076C161.32 54.7195 161.32 52.3544 162.051 50.1662C162.388 49.2064 162.918 48.3251 163.608 47.5759C164.294 46.8538 165.129 46.2894 166.057 45.9223C167.068 45.5255 168.148 45.33 169.235 45.3467C170.298 45.3301 171.354 45.5207 172.344 45.9076C173.238 46.2663 174.04 46.8178 174.694 47.5223C175.359 48.2656 175.86 49.1398 176.163 50.0881C176.52 51.1904 176.686 52.3451 176.653 53.5028L176.619 54.5174ZM173.015 51.9467C173.003 51.419 172.894 50.898 172.692 50.4101C172.512 49.9728 172.246 49.5762 171.908 49.2443C171.567 48.9227 171.164 48.6737 170.723 48.5125C170.232 48.3417 169.715 48.2575 169.196 48.2638C168.639 48.2584 168.086 48.3474 167.56 48.5271C167.084 48.6929 166.644 48.9461 166.262 49.2735C165.893 49.5951 165.596 49.9907 165.391 50.4345C165.169 50.9094 165.044 51.4234 165.024 51.9467H173.015Z"></path>
<path fill-opacity="0.2" fill="black" d="M176.619 54.5174H164.994C164.984 55.1256 165.086 55.7306 165.293 56.3028C165.475 56.8068 165.764 57.2659 166.14 57.6491C166.518 58.0265 166.974 58.3163 167.477 58.4979C168.036 58.7032 168.629 58.8041 169.225 58.7955C170.039 58.8247 170.849 58.6573 171.585 58.3076C171.878 58.165 172.136 57.96 172.341 57.7071C172.546 57.4543 172.692 57.1597 172.77 56.8442H176.359C176.192 57.5636 175.884 58.2432 175.453 58.8442C175.018 59.4483 174.479 59.9716 173.862 60.3906C173.213 60.8186 172.503 61.1474 171.756 61.3662C170.963 61.6065 170.138 61.7282 169.308 61.7272C168.203 61.7428 167.106 61.5456 166.076 61.1466C165.149 60.7795 164.314 60.2152 163.628 59.493C162.926 58.7514 162.388 57.8704 162.051 56.9076C161.32 54.7195 161.32 52.3544 162.051 50.1662C162.388 49.2064 162.918 48.3251 163.608 47.5759C164.294 46.8538 165.129 46.2894 166.057 45.9223C167.068 45.5255 168.148 45.33 169.235 45.3467C170.298 45.3301 171.354 45.5207 172.344 45.9076C173.238 46.2663 174.04 46.8178 174.694 47.5223C175.359 48.2656 175.86 49.1398 176.163 50.0881C176.52 51.1904 176.686 52.3451 176.653 53.5028L176.619 54.5174ZM173.015 51.9467C173.003 51.419 172.894 50.898 172.692 50.4101C172.512 49.9728 172.246 49.5762 171.908 49.2443C171.567 48.9227 171.164 48.6737 170.723 48.5125C170.232 48.3417 169.715 48.2575 169.196 48.2638C168.639 48.2584 168.086 48.3474 167.56 48.5271C167.084 48.6929 166.644 48.9461 166.262 49.2735C165.893 49.5951 165.596 49.9907 165.391 50.4345C165.169 50.9094 165.044 51.4234 165.024 51.9467H173.015Z"></path>
<path fill="black" d="M192.913 54.5174H181.303C181.293 55.1256 181.394 55.7306 181.601 56.3028C181.784 56.8068 182.073 57.2659 182.448 57.6491C182.826 58.0265 183.283 58.3163 183.785 58.4979C184.345 58.7032 184.937 58.8041 185.533 58.7955C186.348 58.8247 187.158 58.6573 187.894 58.3076C188.187 58.165 188.445 57.96 188.649 57.7071C188.854 57.4543 189.001 57.1597 189.079 56.8442H192.668C192.501 57.5636 192.193 58.2432 191.762 58.8442C191.326 59.4483 190.788 59.9716 190.171 60.3906C189.521 60.8186 188.812 61.1474 188.065 61.3662C187.271 61.6065 186.446 61.7282 185.617 61.7272C184.512 61.7428 183.415 61.5456 182.385 61.1466C181.458 60.7795 180.622 60.2152 179.937 59.493C179.234 58.7514 178.697 57.8704 178.36 56.9076C177.629 54.7195 177.629 52.3544 178.36 50.1662C178.697 49.2064 179.227 48.3251 179.917 47.5759C180.603 46.8538 181.438 46.2894 182.365 45.9223C183.377 45.5255 184.456 45.33 185.543 45.3467C186.606 45.3301 187.663 45.5207 188.653 45.9076C189.546 46.2663 190.349 46.8178 191.003 47.5223C191.668 48.2656 192.168 49.1398 192.472 50.0881C192.829 51.1904 192.994 52.3451 192.962 53.5028L192.913 54.5174ZM189.309 51.9467C189.297 51.419 189.188 50.898 188.986 50.4101C188.806 49.9728 188.54 49.5762 188.202 49.2443C187.861 48.9227 187.458 48.6737 187.017 48.5125C186.526 48.3417 186.009 48.2575 185.489 48.2638C184.933 48.2584 184.38 48.3474 183.854 48.5271C183.378 48.6929 182.938 48.9461 182.556 49.2735C182.187 49.5951 181.89 49.9907 181.685 50.4345C181.463 50.9094 181.338 51.4234 181.317 51.9467H189.309Z"></path>
<path fill-opacity="0.2" fill="black" d="M192.913 54.5174H181.303C181.293 55.1256 181.394 55.7306 181.601 56.3028C181.784 56.8068 182.073 57.2659 182.448 57.6491C182.826 58.0265 183.283 58.3163 183.785 58.4979C184.345 58.7032 184.937 58.8041 185.533 58.7955C186.348 58.8247 187.158 58.6573 187.894 58.3076C188.187 58.165 188.445 57.96 188.649 57.7071C188.854 57.4543 189.001 57.1597 189.079 56.8442H192.668C192.501 57.5636 192.193 58.2432 191.762 58.8442C191.326 59.4483 190.788 59.9716 190.171 60.3906C189.521 60.8186 188.812 61.1474 188.065 61.3662C187.271 61.6065 186.446 61.7282 185.617 61.7272C184.512 61.7428 183.415 61.5456 182.385 61.1466C181.458 60.7795 180.622 60.2152 179.937 59.493C179.234 58.7514 178.697 57.8704 178.36 56.9076C177.629 54.7195 177.629 52.3544 178.36 50.1662C178.697 49.2064 179.227 48.3251 179.917 47.5759C180.603 46.8538 181.438 46.2894 182.365 45.9223C183.377 45.5255 184.456 45.33 185.543 45.3467C186.606 45.3301 187.663 45.5207 188.653 45.9076C189.546 46.2663 190.349 46.8178 191.003 47.5223C191.668 48.2656 192.168 49.1398 192.472 50.0881C192.829 51.1904 192.994 52.3451 192.962 53.5028L192.913 54.5174ZM189.309 51.9467C189.297 51.419 189.188 50.898 188.986 50.4101C188.806 49.9728 188.54 49.5762 188.202 49.2443C187.861 48.9227 187.458 48.6737 187.017 48.5125C186.526 48.3417 186.009 48.2575 185.489 48.2638C184.933 48.2584 184.38 48.3474 183.854 48.5271C183.378 48.6929 182.938 48.9461 182.556 49.2735C182.187 49.5951 181.89 49.9907 181.685 50.4345C181.463 50.9094 181.338 51.4234 181.317 51.9467H189.309Z"></path>
<path fill="black" d="M148.56 61.458H150.519V58.5995H147.003V48.5215H150.397V45.6288H147.003V41.9849H143.492V45.6288H141V48.5215H143.473V57.5507C143.473 58.5857 143.885 59.5783 144.62 60.3101C145.355 61.042 146.351 61.4531 147.39 61.4531L148.56 61.458Z"></path>
<path fill-opacity="0.2" fill="black" d="M148.56 61.458H150.519V58.5995H147.003V48.5215H150.397V45.6288H147.003V41.9849H143.492V45.6288H141V48.5215H143.473V57.5507C143.473 58.5857 143.885 59.5783 144.62 60.3101C145.355 61.042 146.351 61.4531 147.39 61.4531L148.56 61.458Z"></path>
<path fill="black" d="M201.088 61.458H203.071V58.5995H199.56V48.5215H202.948V45.6288H199.555V41.9849H196.049V45.6288H193.537V48.5215H196.01V57.5507C196.01 58.5857 196.423 59.5783 197.157 60.3101C197.892 61.042 198.888 61.4531 199.927 61.4531L201.088 61.458Z"></path>
<path fill-opacity="0.2" fill="black" d="M201.088 61.458H203.071V58.5995H199.56V48.5215H202.948V45.6288H199.555V41.9849H196.049V45.6288H193.537V48.5215H196.01V57.5507C196.01 58.5857 196.423 59.5783 197.157 60.3101C197.892 61.042 198.888 61.4531 199.927 61.4531L201.088 61.458Z"></path>
</g>
<defs>
<clipPath id="clip0_10390_17709">
<rect transform="translate(0 31)" fill="white" height="39" width="214.924"></rect>
</clipPath>
</defs>
</svg>
