<svg xmlns="http://www.w3.org/2000/svg" fill="none" viewBox="0 0 153 100" height="100" width="153">
<g clip-path="url(#clip0_8847_33373)">
<path fill="black" d="M23.8476 56.6685H24.2536V64H23.0376C15.1407 64 10.5717 59.5573 10.5717 52.3043V48.5745L13.1377 47.938C13.8892 47.7504 14.5723 47.3582 15.1091 46.8061C15.6459 46.2541 16.015 45.5643 16.1743 44.8153C16.3335 44.0664 16.2766 43.2883 16.01 42.5697C15.7434 41.8511 15.2778 41.2208 14.6663 40.7506C14.0547 40.2804 13.3217 39.9892 12.5507 39.9101C11.7797 39.831 11.0017 39.9671 10.3052 40.3031C9.60874 40.639 9.02181 41.1613 8.61121 41.8104C8.20061 42.4595 7.98285 43.2094 7.9827 43.9747V59.954H4.5567e-06V43.6978C-0.0004357 43.2086 0.0310269 42.72 0.094192 42.2348C0.839299 36.4655 5.94202 32 12.1268 32C17.734 32 22.4537 35.672 23.8476 40.6602C24.5722 43.2729 24.3371 46.0544 23.1841 48.5125C22.2071 50.5867 20.6409 52.3362 18.6758 53.5482C19.3351 56.187 20.7374 56.6747 23.8476 56.6747"></path>
<path fill="black" d="M43.6174 42.5798V47.0597H42.8744C41.313 47.0597 40.0949 47.4833 39.22 48.3306C38.3451 49.1778 37.9091 50.3288 37.9119 51.7835V59.861H33.5166V42.8567H37.9119V45.0553C39.2319 43.4022 40.8874 42.5757 42.8786 42.5757L43.6174 42.5798Z"></path>
<path fill="black" d="M62.4987 52.9284H49.16C49.4346 53.9557 50.0582 54.8588 50.9265 55.4865C51.8497 56.1335 52.9616 56.465 54.0932 56.4309C55.0459 56.4415 55.9885 56.238 56.8497 55.8358C57.6184 55.491 58.296 54.9754 58.8296 54.3294L61.7598 56.871C60.8385 57.9519 59.6786 58.81 58.3692 59.3796C56.9791 59.9841 55.474 60.2878 53.9551 60.2702C52.2478 60.2949 50.562 59.8918 49.0554 59.0986C47.6316 58.3537 46.4444 57.2344 45.6249 55.8647C44.8202 54.4862 44.3932 52.9245 44.3858 51.3334C44.3785 49.7424 44.7911 48.1769 45.5831 46.7912C46.3665 45.4521 47.5076 44.3513 48.8816 43.609C50.3078 42.8318 51.9138 42.4331 53.5428 42.4518C56.1269 42.4518 58.2834 43.3011 60.0122 44.9997C61.741 46.6982 62.6068 48.828 62.6096 51.3889C62.6074 51.9039 62.5704 52.4182 62.4987 52.9284V52.9284ZM56.3034 47.2024C55.5069 46.5854 54.5238 46.25 53.5114 46.25C52.4989 46.25 51.5158 46.5854 50.7193 47.2024C49.9153 47.8548 49.3524 48.7513 49.1182 49.7523H57.9087C57.675 48.7506 57.1111 47.8537 56.3055 47.2024H56.3034Z"></path>
<path fill="black" d="M90.7756 44.1773C91.9519 45.3276 92.54 46.8671 92.54 48.7957V59.8715H88.1447V50.083C88.1447 49.0388 87.8391 48.2054 87.228 47.5827C86.6168 46.96 85.7999 46.6473 84.7771 46.6446C83.6999 46.6446 82.8257 46.9656 82.1546 47.6075C81.4834 48.2495 81.1478 49.0967 81.1478 50.1492V59.8612H76.7525V50.083C76.7525 49.0512 76.4421 48.2205 75.8212 47.591C75.2002 46.9614 74.37 46.646 73.3305 46.6446C72.8521 46.6259 72.3748 46.7022 71.9268 46.8691C71.4788 47.0359 71.0693 47.2898 70.7226 47.6158C70.3869 47.9465 70.1242 48.3424 69.9513 48.7785C69.7784 49.2145 69.6989 49.6813 69.718 50.1492V59.8612H65.3311V42.8548H69.7263V44.6113C71.0226 43.1662 72.7214 42.4443 74.8228 42.4457C75.9344 42.4236 77.0344 42.6728 78.0251 43.171C78.9401 43.6389 79.7075 44.3458 80.2437 45.2146C81.6669 43.3687 83.6204 42.4457 86.1041 42.4457C88.0533 42.4498 89.6105 43.027 90.7756 44.1773Z"></path>
<path fill="black" d="M113.584 51.3621C113.584 53.8914 112.699 56.0087 110.928 57.7142C109.158 59.4196 106.957 60.2703 104.327 60.2662C101.698 60.2662 99.4956 59.4141 97.7194 57.7101C95.9431 56.006 95.0536 53.8886 95.0508 51.358C95.0508 48.8288 95.9403 46.7107 97.7194 45.0039C99.4984 43.297 101.701 42.445 104.327 42.4478C106.956 42.4478 109.156 43.2998 110.928 45.0039C112.7 46.708 113.586 48.8274 113.584 51.3621ZM107.724 54.7241C108.582 53.8092 109.059 52.6082 109.059 51.3611C109.059 50.114 108.582 48.913 107.724 47.9981C107.28 47.5594 106.754 47.2114 106.174 46.9739C105.594 46.7365 104.972 46.6143 104.345 46.6143C103.717 46.6143 103.095 46.7365 102.516 46.9739C101.936 47.2114 101.409 47.5594 100.966 47.9981C100.097 48.9047 99.6135 50.1051 99.6135 51.3528C99.6135 52.6006 100.097 53.801 100.966 54.7076C101.871 55.5729 103.082 56.0567 104.342 56.0567C105.602 56.0567 106.812 55.5729 107.718 54.7076L107.724 54.7241Z"></path>
<path fill="black" d="M121.612 46.8159V53.8871C121.612 55.3418 122.403 56.0692 123.987 56.0692C124.773 56.0405 125.544 55.846 126.248 55.4988V59.5407C125.254 60.0474 124.148 60.2989 123.031 60.2722C121.105 60.2722 119.655 59.7652 118.681 58.7513C117.707 57.7374 117.219 56.3502 117.216 54.5896V46.82H114.477V42.8567H117.216V40.0237L121.612 38.54V42.8567H126.248V46.8159H121.612Z"></path>
<path fill="black" d="M145.701 52.9283H132.352C132.626 53.9556 133.25 54.8587 134.118 55.4864C135.041 56.1336 136.153 56.4652 137.285 56.4308C138.237 56.4417 139.179 56.2382 140.039 55.8357C140.809 55.4914 141.487 54.9758 142.021 54.3293L144.951 56.8709C144.03 57.9518 142.87 58.8099 141.561 59.3795C140.171 59.9854 138.666 60.2905 137.147 60.2742C135.439 60.2991 133.753 59.896 132.247 59.1026C130.823 58.3571 129.635 57.238 128.814 55.8687C128.011 54.4898 127.584 52.9281 127.577 51.3372C127.57 49.7462 127.983 48.1809 128.775 46.7952C129.558 45.4556 130.699 44.3541 132.073 43.6109C133.499 42.8337 135.105 42.435 136.734 42.4538C139.318 42.4538 141.474 43.3037 143.202 45.0037C144.929 46.7036 145.793 48.8348 145.793 51.3971C145.797 51.9089 145.766 52.4204 145.701 52.9283ZM139.512 47.2023C138.715 46.5853 137.732 46.2499 136.72 46.2499C135.707 46.2499 134.724 46.5853 133.928 47.2023C133.124 47.8547 132.561 48.7512 132.326 49.7522H141.117C140.881 48.7478 140.313 47.8494 139.503 47.1982L139.512 47.2023Z"></path>
</g>
<defs>
<clipPath id="clip0_8847_33373">
<rect transform="translate(0 32)" fill="white" height="32" width="146"></rect>
</clipPath>
</defs>
</svg>
