<svg width="600" height="600" viewBox="0 0 600 600" fill="none" xmlns="http://www.w3.org/2000/svg">
<g clip-path="url(#clip0_8167_31594)">
<rect x="-475" y="-81" width="1551" height="762.006" rx="25.4002" fill="#360802"/>
<path d="M300.499 458.755C368.27 458.755 423.209 448.973 423.209 436.906C423.209 424.839 368.27 415.057 300.499 415.057C232.728 415.057 177.789 424.839 177.789 436.906C177.789 448.973 232.728 458.755 300.499 458.755Z" fill="#FBA498"/>
<path d="M300.499 427.067C368.27 427.067 423.209 406.22 423.209 380.504C423.209 354.787 368.27 333.94 300.499 333.94C232.728 333.94 177.789 354.787 177.789 380.504C177.789 406.22 232.728 427.067 300.499 427.067Z" fill="#FA8270"/>
<path d="M300.499 386.672C368.27 386.672 423.209 331.733 423.209 263.962C423.209 196.191 368.27 141.252 300.499 141.252C232.728 141.252 177.789 196.191 177.789 263.962C177.789 331.733 232.728 386.672 300.499 386.672Z" fill="#F73B20"/>
</g>
<defs>
<clipPath id="clip0_8167_31594">
<rect width="600" height="600" rx="300" fill="white"/>
</clipPath>
</defs>
</svg>
