<svg xmlns="http://www.w3.org/2000/svg" width="177" height="60" fill="none"><g clip-path="url(#a)"><path fill="#A6A6A6" d="M162.798.269H14.094c-.542 0-1.078 0-1.618.003-.453.003-.902.011-1.359.018-.992.012-1.983.1-2.962.262a9.852 9.852 0 0 0-2.81.926 9.516 9.516 0 0 0-2.392 1.743A9.25 9.25 0 0 0 1.21 5.617 9.758 9.758 0 0 0 .287 8.43a19.206 19.206 0 0 0-.265 2.96c-.013.453-.015.907-.022 1.36v34.168c.007.459.009.903.022 1.362.012.992.1 1.981.265 2.96.163.98.474 1.929.924 2.814a9.175 9.175 0 0 0 1.742 2.386 9.276 9.276 0 0 0 2.392 1.743c.885.45 1.832.764 2.81.932.98.161 1.97.248 2.962.262.457.01.906.015 1.359.015.54.003 1.076.003 1.618.003h148.704c.531 0 1.071 0 1.602-.003.451 0 .912-.005 1.363-.015.991-.013 1.979-.1 2.956-.262.981-.17 1.932-.483 2.821-.932a9.267 9.267 0 0 0 2.39-1.742 9.438 9.438 0 0 0 1.747-2.387 9.766 9.766 0 0 0 .915-2.815c.165-.978.257-1.967.274-2.959.006-.459.006-.904.006-1.362.012-.537.012-1.072.012-1.617V14.365c0-.542 0-1.079-.012-1.614 0-.454 0-.908-.006-1.361a19.837 19.837 0 0 0-.274-2.96 9.79 9.79 0 0 0-.915-2.813 9.555 9.555 0 0 0-4.137-4.139c-.889-.447-1.84-.76-2.821-.927a19.27 19.27 0 0 0-2.956-.26c-.451-.008-.912-.017-1.363-.02-.531-.003-1.071-.003-1.602-.003Z"/><path fill="#000" d="M12.483 58.101c-.45 0-.89-.005-1.337-.015a18.765 18.765 0 0 1-2.763-.242 8.699 8.699 0 0 1-2.449-.81 7.99 7.99 0 0 1-2.065-1.502 7.865 7.865 0 0 1-1.508-2.064 8.457 8.457 0 0 1-.803-2.45 18.35 18.35 0 0 1-.246-2.772c-.01-.311-.021-1.35-.021-1.35V12.75s.013-1.022.021-1.322c.012-.927.093-1.852.245-2.767a8.508 8.508 0 0 1 .803-2.457 7.943 7.943 0 0 1 1.5-2.067 8.227 8.227 0 0 1 2.074-1.511 8.607 8.607 0 0 1 2.444-.804c.916-.15 1.843-.231 2.772-.243l1.334-.018h151.909l1.35.02c.92.01 1.838.09 2.747.24a8.783 8.783 0 0 1 2.47.81 8.265 8.265 0 0 1 3.569 3.576c.386.768.652 1.59.792 2.438.153.922.239 1.854.256 2.79.005.418.005.868.005 1.315.011.555.011 1.082.011 1.614V45.3c0 .537 0 1.061-.011 1.59 0 .48 0 .92-.006 1.374a18.779 18.779 0 0 1-.253 2.74 8.486 8.486 0 0 1-.798 2.468 8.106 8.106 0 0 1-1.501 2.048 7.993 7.993 0 0 1-2.069 1.512 8.658 8.658 0 0 1-2.465.813c-.914.149-1.838.23-2.763.24-.433.01-.887.016-1.327.016l-1.602.003-150.315-.003Z"/><path fill="#fff" d="M62.53 40.386h-6.997l-1.68 4.961h-2.964l6.627-18.356h3.08l6.627 18.356h-3.014l-1.68-4.961Zm-6.272-2.29h5.546l-2.734-8.052h-.077l-2.735 8.052ZM81.535 38.656c0 4.159-2.226 6.83-5.585 6.83a4.537 4.537 0 0 1-4.21-2.34h-.064v6.628h-2.747v-17.81h2.659v2.226h.05a4.747 4.747 0 0 1 4.261-2.366c3.397 0 5.636 2.685 5.636 6.832Zm-2.823 0c0-2.71-1.4-4.49-3.537-4.49-2.099 0-3.51 1.818-3.51 4.49 0 2.697 1.411 4.502 3.51 4.502 2.136 0 3.537-1.768 3.537-4.502ZM96.265 38.656c0 4.159-2.226 6.83-5.585 6.83a4.537 4.537 0 0 1-4.21-2.34h-.064v6.628h-2.747v-17.81h2.659v2.226h.05a4.747 4.747 0 0 1 4.261-2.366c3.397 0 5.636 2.685 5.636 6.832Zm-2.823 0c0-2.71-1.4-4.49-3.537-4.49-2.099 0-3.51 1.818-3.51 4.49 0 2.697 1.411 4.502 3.51 4.502 2.136 0 3.537-1.768 3.537-4.502ZM106 40.233c.204 1.82 1.972 3.016 4.388 3.016 2.316 0 3.982-1.196 3.982-2.837 0-1.425-1.005-2.278-3.384-2.862l-2.379-.574c-3.371-.814-4.935-2.39-4.935-4.948 0-3.167 2.76-5.342 6.679-5.342 3.879 0 6.538 2.175 6.627 5.342h-2.773c-.166-1.832-1.68-2.938-3.893-2.938s-3.727 1.12-3.727 2.747c0 1.298.967 2.062 3.333 2.646l2.022.497c3.766.89 5.331 2.404 5.331 5.088 0 3.435-2.735 5.585-7.086 5.585-4.071 0-6.819-2.1-6.997-5.42H106ZM123.2 28.798v3.167h2.544v2.175H123.2v7.378c0 1.146.509 1.68 1.628 1.68a8.56 8.56 0 0 0 .903-.063v2.162a7.539 7.539 0 0 1-1.525.127c-2.71 0-3.766-1.017-3.766-3.613v-7.67h-1.946v-2.176h1.945v-3.167h2.761ZM127.219 38.657c0-4.211 2.48-6.857 6.347-6.857 3.88 0 6.349 2.646 6.349 6.857 0 4.222-2.456 6.856-6.349 6.856-3.892 0-6.347-2.634-6.347-6.856Zm9.897 0c0-2.889-1.324-4.594-3.55-4.594s-3.548 1.718-3.548 4.594c0 2.9 1.322 4.592 3.548 4.592s3.549-1.692 3.549-4.592h.001ZM142.179 31.964h2.62v2.278h.064a3.191 3.191 0 0 1 3.219-2.418 4.24 4.24 0 0 1 .941.102v2.57a3.843 3.843 0 0 0-1.234-.166 2.767 2.767 0 0 0-2.863 3.079v7.938h-2.747V31.964ZM161.688 41.417c-.369 2.43-2.735 4.096-5.762 4.096-3.893 0-6.31-2.608-6.31-6.793 0-4.198 2.43-6.92 6.194-6.92 3.703 0 6.031 2.543 6.031 6.601v.941h-9.452v.166a3.493 3.493 0 0 0 .945 2.708 3.479 3.479 0 0 0 2.655 1.083 3.029 3.029 0 0 0 3.091-1.882h2.608Zm-9.286-3.995h6.691a3.225 3.225 0 0 0-.899-2.415 3.216 3.216 0 0 0-2.384-.981 3.385 3.385 0 0 0-3.15 2.093 3.392 3.392 0 0 0-.258 1.303ZM55.913 13.173a3.903 3.903 0 0 1 4.15 4.382c0 2.818-1.522 4.438-4.15 4.438h-3.185v-8.82h3.185Zm-1.816 7.573h1.663a2.773 2.773 0 0 0 2.91-3.172 2.78 2.78 0 0 0-2.91-3.155h-1.663v6.327ZM61.611 18.663a3.154 3.154 0 1 1 6.278 0 3.153 3.153 0 1 1-6.278 0Zm4.927 0c0-1.443-.648-2.287-1.786-2.287-1.142 0-1.784.844-1.784 2.287 0 1.454.642 2.291 1.784 2.291 1.138 0 1.786-.843 1.786-2.291ZM76.234 21.994h-1.363l-1.375-4.902h-.104l-1.37 4.902h-1.35l-1.835-6.656h1.333l1.192 5.079h.098l1.369-5.08h1.26l1.368 5.08h.104l1.187-5.08h1.313l-1.827 6.657ZM79.605 15.337h1.264v1.058h.098a1.992 1.992 0 0 1 1.987-1.186 2.166 2.166 0 0 1 2.303 2.475v4.31h-1.313v-3.98c0-1.07-.465-1.601-1.437-1.601a1.527 1.527 0 0 0-1.589 1.686v3.894h-1.314v-6.656ZM87.35 12.74h1.314v9.254h-1.313v-9.255ZM90.49 18.663a3.154 3.154 0 1 1 6.279 0 3.154 3.154 0 1 1-6.28 0Zm4.927 0c0-1.443-.648-2.287-1.786-2.287-1.142 0-1.784.844-1.784 2.287 0 1.454.642 2.291 1.784 2.291 1.138 0 1.786-.843 1.786-2.291ZM98.152 20.111c0-1.198.892-1.889 2.475-1.987l1.803-.104v-.574c0-.703-.464-1.1-1.362-1.1-.734 0-1.242.269-1.388.74H98.41c.134-1.144 1.21-1.877 2.719-1.877 1.669 0 2.61.83 2.61 2.237v4.547h-1.264v-.935h-.104a2.236 2.236 0 0 1-1.999 1.045 2.014 2.014 0 0 1-2.043-1.177 2.01 2.01 0 0 1-.176-.815Zm4.278-.569v-.556l-1.625.104c-.917.061-1.332.373-1.332.96 0 .599.52.947 1.234.947a1.57 1.57 0 0 0 1.723-1.455ZM105.464 18.663c0-2.104 1.082-3.436 2.763-3.436a2.197 2.197 0 0 1 2.041 1.168h.099v-3.656h1.313v9.255h-1.259v-1.052h-.104a2.304 2.304 0 0 1-2.09 1.161c-1.693 0-2.763-1.332-2.763-3.44Zm1.357 0c0 1.411.666 2.26 1.779 2.26 1.107 0 1.791-.86 1.791-2.255 0-1.387-.691-2.26-1.791-2.26-1.106 0-1.779.854-1.779 2.255ZM117.115 18.663a3.146 3.146 0 0 1 .805-2.422 3.157 3.157 0 0 1 3.61-.762 3.144 3.144 0 0 1 1.716 1.888c.139.417.189.858.147 1.296a3.17 3.17 0 0 1-.145 1.297 3.163 3.163 0 0 1-2.994 2.162 3.153 3.153 0 0 1-3.139-3.46Zm4.927 0c0-1.443-.648-2.287-1.786-2.287-1.142 0-1.784.844-1.784 2.287 0 1.454.642 2.291 1.784 2.291 1.138 0 1.786-.843 1.786-2.291ZM125.156 15.337h1.264v1.058h.098a1.996 1.996 0 0 1 1.987-1.186 2.162 2.162 0 0 1 2.229 1.516c.097.31.122.638.075.96v4.308h-1.314v-3.979c0-1.07-.465-1.601-1.436-1.601a1.53 1.53 0 0 0-1.518 1.037 1.52 1.52 0 0 0-.072.65v3.893h-1.313v-6.656ZM138.231 13.68v1.688h1.442v1.106h-1.442v3.423c0 .697.287 1.003.941 1.003.168 0 .335-.011.501-.03v1.093a4.303 4.303 0 0 1-.714.068c-1.461 0-2.043-.514-2.043-1.798v-3.759h-1.057v-1.106h1.057v-1.687h1.315ZM141.467 12.74h1.302v3.667h.104a2.047 2.047 0 0 1 2.03-1.192 2.192 2.192 0 0 1 2.292 2.481v4.297h-1.315V18.02c0-1.063-.495-1.601-1.423-1.601a1.557 1.557 0 0 0-1.59 1.021c-.077.213-.106.44-.086.666v3.887h-1.314V12.74ZM154.854 20.196a2.7 2.7 0 0 1-2.884 1.926 3.025 3.025 0 0 1-3.074-3.436 3.057 3.057 0 0 1 .741-2.439 3.066 3.066 0 0 1 2.327-1.038c1.853 0 2.97 1.265 2.97 3.355v.459h-4.7v.073a1.752 1.752 0 0 0 .464 1.346 1.765 1.765 0 0 0 1.308.561 1.596 1.596 0 0 0 1.584-.807h1.264Zm-4.62-2.145h3.362a1.608 1.608 0 0 0-1.639-1.724 1.704 1.704 0 0 0-1.723 1.724ZM36.613 30.277a7.316 7.316 0 0 1 3.484-6.137 7.49 7.49 0 0 0-5.9-3.19c-2.482-.26-4.889 1.485-6.154 1.485-1.289 0-3.236-1.459-5.334-1.416a7.857 7.857 0 0 0-6.611 4.032c-2.859 4.95-.727 12.224 2.012 16.225 1.37 1.959 2.971 4.147 5.067 4.07 2.05-.085 2.816-1.308 5.29-1.308 2.452 0 3.17 1.308 5.309 1.258 2.2-.035 3.586-1.967 4.908-3.945a16.205 16.205 0 0 0 2.244-4.571 7.068 7.068 0 0 1-4.315-6.503ZM32.576 18.319a7.202 7.202 0 0 0 1.647-5.16 7.328 7.328 0 0 0-4.741 2.453 6.854 6.854 0 0 0-1.69 4.97 6.06 6.06 0 0 0 4.784-2.263Z"/></g><defs><clipPath id="a"><path fill="#fff" d="M0 .269h176.884v59.127H0z"/></clipPath></defs></svg>