<svg xmlns="http://www.w3.org/2000/svg" width="25" height="27" fill="none"><path stroke="#021842" stroke-width="1.5" d="M19.219 10.268C20 9.536 20 8.357 20 6c0-2.357 0-3.536-.781-4.268m0 8.536c-.781.732-2.038.732-4.552.732H9.333c-2.514 0-3.77 0-4.552-.732m14.438 0Zm0-8.536C18.438 1 17.181 1 14.667 1H9.333c-2.514 0-3.77 0-4.552.732m14.438 0Zm-14.438 0C4 2.464 4 3.643 4 6c0 2.357 0 3.536.781 4.268m0-8.536Zm0 8.536ZM13 6c0 .552-.672 1-1.5 1S10 6.552 10 6s.672-1 1.5-1 1.5.448 1.5 1Z"/><path stroke="#021842" stroke-linecap="round" stroke-width="1.5" d="M20 5a4 4 0 0 1-4-4M20 7a4 4 0 0 0-4 4M4 5a4 4 0 0 0 4-4M4 7a4 4 0 0 1 4 4M1 25.214h3.058c1.367 0 2.75.135 4.08.396 2.355.46 4.834.516 7.213.15m-1.26-4.238c.163-.018.318-.038.466-.06 1.233-.188 2.268-.814 3.216-1.494l2.445-1.755c.862-.619 2.141-.62 3.003 0 .776.556 1.014 1.473.523 2.22-.572.872-1.378 1.988-2.152 2.669m-7.5-1.58-.149.016m.149-.016c.197-.04.393-.156.576-.308.87-.722.926-1.938.17-2.744a2.548 2.548 0 0 0-.607-.472C10.445 15.852 4.556 17.486 1 19.884m13.091 1.638a.738.738 0 0 1-.148.016m0 0c-.708.069-1.536.086-2.455.004"/></svg>