<svg xmlns="http://www.w3.org/2000/svg" width="201" height="60" fill="none"><g clip-path="url(#a)"><path fill="#000" fill-rule="evenodd" d="M193.014 59.395H8.307c-4.091 0-7.423-3.332-7.423-7.39V7.659C.884 3.586 4.216.27 8.307.27h184.707c4.087 0 7.423 3.317 7.423 7.39v44.346c0 4.058-3.336 7.39-7.423 7.39Z" clip-rule="evenodd"/><path fill="#A6A6A6" fill-rule="evenodd" d="M193.014 1.452c3.431 0 6.24 2.79 6.24 6.207v44.346c0 3.417-2.79 6.207-6.24 6.207H8.307c-3.432 0-6.24-2.79-6.24-6.208V7.66c0-3.417 2.79-6.207 6.24-6.207h184.707Zm0-1.183H8.307C4.216.269.884 3.6.884 7.659v44.346c0 4.073 3.332 7.39 7.423 7.39h184.707c4.087 0 7.423-3.317 7.423-7.39V7.659c0-4.058-3.336-7.39-7.423-7.39Z" clip-rule="evenodd"/><path fill="#fff" d="M101.6 32.422c-3.476 0-6.31 2.643-6.31 6.286 0 3.62 2.834 6.287 6.31 6.287 3.477 0 6.311-2.667 6.311-6.287 0-3.643-2.834-6.286-6.311-6.286Zm0 10.097c-1.905 0-3.549-1.571-3.549-3.81 0-2.264 1.644-3.812 3.549-3.812 1.906 0 3.548 1.548 3.548 3.811 0 2.238-1.642 3.81-3.548 3.81ZM87.833 32.422c-3.477 0-6.31 2.643-6.31 6.286 0 3.62 2.833 6.287 6.31 6.287 3.476 0 6.31-2.667 6.31-6.287.001-3.643-2.834-6.286-6.31-6.286Zm0 10.097c-1.906 0-3.548-1.571-3.548-3.81 0-2.264 1.644-3.812 3.548-3.812 1.905 0 3.547 1.548 3.547 3.811.002 2.238-1.642 3.81-3.547 3.81ZM71.457 34.35v2.667h6.383c-.19 1.5-.69 2.596-1.453 3.358-.928.929-2.381 1.953-4.93 1.953-3.928 0-7-3.168-7-7.097 0-3.929 3.072-7.096 7-7.096 2.12 0 3.668.833 4.81 1.905l1.882-1.881c-1.595-1.524-3.715-2.692-6.692-2.692-5.381 0-9.906 4.381-9.906 9.763s4.525 9.763 9.906 9.763c2.905 0 5.097-.952 6.812-2.739 1.762-1.762 2.31-4.24 2.31-6.239a8.63 8.63 0 0 0-.143-1.667h-8.979v.002Zm66.973 2.071c-.523-1.405-2.119-4.001-5.382-4.001-3.238 0-5.929 2.548-5.929 6.287 0 3.524 2.667 6.286 6.24 6.286 2.881 0 4.548-1.762 5.238-2.786l-2.143-1.43c-.714 1.049-1.691 1.739-3.095 1.739-1.406 0-2.405-.643-3.048-1.905l8.406-3.477-.287-.713Zm-8.573 2.096c-.071-2.428 1.882-3.667 3.286-3.667 1.095 0 2.024.547 2.334 1.334l-5.62 2.334Zm-6.835 6.096h2.763V26.136h-2.763v18.479Zm-4.525-10.787h-.094c-.62-.738-1.81-1.406-3.31-1.406-3.144 0-6.025 2.763-6.025 6.31 0 3.524 2.881 6.263 6.025 6.263 1.5 0 2.69-.666 3.31-1.429h.094v.905c0 2.405-1.286 3.69-3.358 3.69-1.691 0-2.739-1.215-3.168-2.237l-2.405 1c.69 1.668 2.525 3.715 5.573 3.715 3.239 0 5.978-1.905 5.978-6.548V32.8h-2.62v1.025Zm-3.166 8.693c-1.905 0-3.5-1.595-3.5-3.787 0-2.215 1.595-3.834 3.5-3.834 1.882 0 3.357 1.618 3.357 3.834 0 2.19-1.475 3.787-3.357 3.787Zm36.039-16.384h-6.609v18.479h2.757v-7.001h3.851c3.057 0 6.062-2.213 6.062-5.738 0-3.526-3.004-5.74-6.061-5.74Zm.071 8.906h-3.923v-6.334h3.923c2.062 0 3.233 1.707 3.233 3.168 0 1.43-1.171 3.166-3.233 3.166Zm17.046-2.653c-1.997 0-4.065.879-4.92 2.829l2.449 1.023c.523-1.023 1.497-1.356 2.52-1.356 1.427 0 2.877.856 2.9 2.377v.19c-.499-.285-1.569-.713-2.876-.713-2.639 0-5.326 1.45-5.326 4.16 0 2.474 2.164 4.066 4.588 4.066 1.855 0 2.877-.832 3.518-1.806h.095v1.426h2.662v-7.085c0-3.282-2.448-5.111-5.61-5.111Zm-.334 10.127c-.903 0-2.164-.453-2.164-1.569 0-1.426 1.57-1.973 2.924-1.973 1.212 0 1.783.261 2.52.618a3.34 3.34 0 0 1-3.28 2.923Zm15.644-9.724-3.162 8.012h-.095l-3.28-8.012h-2.971l4.921 11.197-2.805 6.23h2.876l7.585-17.427h-3.069Zm-24.844 11.823h2.759v-18.48h-2.759v18.48Z"/><path fill="#EB4335" d="M31.507 28.981 15.769 45.684l.003.01a4.247 4.247 0 0 0 4.105 3.15c.786 0 1.524-.214 2.156-.586l.05-.03 17.715-10.221-8.291-9.026Z"/><path fill="#FABC13" d="m47.428 26.137-.014-.01-7.649-4.435-8.616 7.668 8.646 8.644 7.608-4.389a4.252 4.252 0 0 0 .025-7.478Z"/><path fill="#547DBF" d="M15.769 13.982a4.166 4.166 0 0 0-.145 1.094v29.515c0 .38.049.746.145 1.093l16.279-16.276-16.28-15.426Z"/><path fill="#30A851" d="m31.622 29.832 8.146-8.143-17.695-10.258a4.254 4.254 0 0 0-6.304 2.547v.004l15.853 15.85Z"/><path fill="#fff" d="M70.912 14.742h-4.298v1.065h3.22c-.087.867-.434 1.548-1.015 2.043-.582.495-1.326.744-2.205.744-.967 0-1.785-.334-2.453-1.004-.656-.681-.992-1.523-.992-2.54 0-1.015.336-1.857.992-2.539.668-.668 1.486-1.002 2.453-1.002.495 0 .966.086 1.4.272.433.186.78.446 1.052.78l.817-.817c-.37-.421-.842-.744-1.423-.979a4.854 4.854 0 0 0-1.846-.347c-1.29 0-2.379.446-3.27 1.338-.893.893-1.338 1.994-1.338 3.295 0 1.3.445 2.403 1.338 3.294.891.893 1.98 1.338 3.27 1.338 1.35 0 2.427-.433 3.257-1.313.73-.73 1.103-1.722 1.103-2.96 0-.21-.025-.433-.062-.668ZM72.61 10.616v8.87h5.177v-1.09H73.75v-2.812h3.64v-1.066h-3.64v-2.811h4.038v-1.091H72.61ZM85.069 11.707v-1.091h-6.095v1.09h2.477v7.78h1.14v-7.78h2.478ZM90.619 10.616h-1.14v8.87h1.14v-8.87ZM98.15 11.707v-1.091h-6.094v1.09h2.477v7.78h1.14v-7.78h2.477ZM109.683 11.769c-.88-.905-1.957-1.351-3.246-1.351-1.288 0-2.367.446-3.246 1.338-.88.88-1.313 1.982-1.313 3.295 0 1.314.433 2.415 1.313 3.294.879.893 1.958 1.338 3.246 1.338 1.276 0 2.366-.445 3.246-1.338.879-.88 1.313-1.98 1.313-3.294 0-1.301-.434-2.402-1.313-3.282Zm-5.673.742c.656-.668 1.46-1.002 2.427-1.002.967 0 1.771.334 2.415 1.002.657.658.979 1.512.979 2.54s-.322 1.883-.979 2.539c-.644.67-1.448 1.004-2.415 1.004-.967 0-1.771-.334-2.427-1.004-.645-.668-.967-1.51-.967-2.54 0-1.027.322-1.87.967-2.539ZM113.733 13.961l-.049-1.71h.049l4.51 7.234h1.189v-8.869h-1.14v5.191l.05 1.71h-.05l-4.311-6.901h-1.386v8.87h1.138V13.96Z"/></g><defs><clipPath id="a"><path fill="#fff" d="M.884.269h199.553v59.127H.884z"/></clipPath></defs></svg>